<svg width="52" height="56" viewBox="0 0 52 56" fill="none" xmlns="http://www.w3.org/2000/svg">
<path fill-rule="evenodd" clip-rule="evenodd" d="M23.2015 32.3827C23.6103 32.4642 24.0889 32.6452 24.4678 32.7811C24.6772 32.8535 24.8367 32.9169 25.056 32.9893C25.3751 33.098 25.4349 33.0617 25.5745 33.27C25.9334 33.2971 28.2765 34.121 29.0343 34.1301C28.6853 34.6643 26.9504 36.5204 26.412 36.8191L26.2824 36.8916C25.9833 37.3443 24.5475 38.2135 24.0291 38.5032C21.0878 40.1238 18.3658 39.4448 17.5382 36.0133C17.4286 35.5697 17.4884 35.4701 17.289 35.2347C17.289 36.3665 17.1793 37.2175 17.4186 38.4941C17.5981 39.4176 18.0169 40.3502 18.5253 40.9387C20.2402 42.8672 23.0021 41.9165 24.9962 40.7304C25.6642 40.3321 26.9404 39.3814 27.5188 38.8472L29.7621 36.5928C30.151 36.1039 31.0782 35.0808 31.3275 34.61C32.3544 34.61 34.1691 34.945 35.6448 34.7458C36.3327 34.6462 36.9509 34.6009 37.6189 34.4379C38.8453 34.1301 39.6828 33.7861 40.5702 32.8897C41.7766 31.6856 41.6071 29.6575 40.8095 28.2813L40.5502 27.901C40.5702 28.4623 41.0089 29.3768 40.3708 30.5628C39.1843 32.763 35.1562 33.2157 33.0823 32.9259C30.6794 32.6 30.3205 32.7087 27.6284 31.9119C26.7909 31.6674 26.0332 31.4139 25.2056 31.1061C24.7968 30.9522 24.4877 30.8073 24.0989 30.6353C21.3769 29.4221 19.2931 28.3446 16.9899 26.4614C15.8034 25.5017 14.6966 24.4152 13.899 23.0843C13.5401 22.4958 13.0914 21.5723 13.0316 20.7212C12.8122 17.9054 15.2251 17.2173 15.6339 16.8642C13.9688 16.8642 11.6058 17.7424 10.7383 19.2273C8.89377 22.4052 13.2111 26.4162 15.4344 28.0911C16.8702 29.1776 18.3459 30.0377 19.9711 30.8978C19.662 32.2016 19.4426 34.0758 19.6719 35.6149C19.7716 36.2578 20.0409 37.0636 20.5992 37.29C20.9482 37.4439 21.2174 37.4258 21.6561 37.3261C21.9253 37.2628 22.4338 37.0817 22.5734 36.8916C21.9353 36.5928 21.2074 36.6652 20.8385 34.9178C20.6092 33.8313 20.7786 32.3736 20.998 31.4501C21.3071 31.5226 21.8156 31.7942 22.0948 31.921C22.4537 32.0839 22.8625 32.2469 23.2015 32.3827Z" fill="#EC3236"/>
<path fill-rule="evenodd" clip-rule="evenodd" d="M24.5775 26.8417C24.1188 26.7602 23.7798 26.2894 23.8795 25.6646C23.9692 25.1486 24.2085 24.5872 24.2983 24.0892L25.3053 24.3518L26.3622 24.6415C26.3223 25.0037 26.063 25.9906 25.9334 26.2894C25.7839 26.6244 25.056 27.2853 24.5775 26.8417ZM25.5246 24.044L24.378 23.7995C24.4179 23.4374 24.727 22.2061 24.8765 21.9253C25.066 21.5451 25.5047 21.2644 25.9533 21.3006L26.3422 21.4636C26.8108 21.527 27.1199 22.0883 27.0102 22.7312C26.9205 23.2292 26.7211 23.8267 26.5914 24.3609L25.5246 24.044ZM22.2543 18.684C22.4936 18.9466 22.6132 19.6075 22.673 20.015C22.7129 20.3952 22.8426 20.8661 22.8824 21.2826C22.9223 21.8529 22.9622 22.1789 22.9622 22.8127C23.1317 23.202 23.0021 25.6103 22.8824 26.0902C22.8824 26.905 22.8924 27.7199 22.8824 28.5347C22.8725 29.576 22.8625 29.3768 24.029 29.8386C26.5317 30.8435 25.8337 30.7892 25.9932 29.6665C26.3223 27.3577 27.9575 23.9534 29.6225 22.2242C29.7721 21.9525 30.4102 21.2644 30.6993 21.0924C31.3275 20.3862 32.145 19.7977 32.9826 19.3088C33.3415 19.1005 35.5151 18.1589 35.9139 18.1227C36.2529 17.7877 36.9907 17.8692 37.2799 17.507L35.904 17.6881L28.1469 19.4446C27.6882 19.5261 27.3592 19.6257 26.8706 19.6257C26.4918 19.8882 25.4748 19.4446 25.2355 19.2273C24.9164 19.0372 24.727 18.9738 24.4079 18.7293C21.9651 16.9004 20.4696 13.9941 20.0508 13.7044C20.0608 13.9216 20.4895 14.6188 20.6291 14.8542C20.8784 15.2707 21.0379 15.6057 21.2572 16.0493C21.4965 16.5292 22.2144 18.2042 22.2543 18.684Z" fill="#007CC2"/>
<path fill-rule="evenodd" clip-rule="evenodd" d="M29.6226 22.2242C30.3504 22.4686 32.6536 23.8176 33.2917 24.1979C33.6706 24.4243 34.0395 24.7411 34.3985 24.9856C34.2987 25.4383 33.9697 26.1626 33.7703 26.561C33.2917 27.5479 32.843 28.5438 32.2747 29.4854C32.0952 29.7842 31.5568 30.6081 31.487 30.8978C31.7662 30.925 32.2448 31.0155 32.524 31.0427L33.6905 31.1333C34.0993 30.3727 34.5679 29.6122 34.9369 28.8336C35.0765 28.5438 35.9439 26.552 36.1333 26.4071C36.223 26.7149 36.8213 27.1404 37.3198 27.9825C37.8084 28.8426 37.8084 29.0418 37.7186 30.1916C39.7127 28.8516 37.8981 26.4614 36.7116 25.2844C36.4723 25.0399 36.3726 24.9313 36.0934 24.714L34.2589 23.2382C33.1322 22.4052 30.7891 21.1558 30.6994 21.0924C30.4102 21.2644 29.7721 21.9525 29.6226 22.2242Z" fill="#EC3236"/>
<path fill-rule="evenodd" clip-rule="evenodd" d="M35.9039 17.6881L37.2799 17.507C36.9907 17.8692 36.2529 17.7877 35.9139 18.1227C35.864 18.9647 35.7244 21.0562 35.4253 21.6719C35.5848 21.7805 35.6845 21.8801 35.864 22.025L36.7315 22.7312C36.9707 22.9213 36.9608 23.0209 37.24 23.0933L37.6787 21.2463C38.3068 18.4758 38.6159 13.8583 35.7444 12.4459C34.4881 11.8211 32.2647 12.2557 31.9556 12.6813C32.8928 12.6813 33.2218 12.6722 33.85 12.9982C34.3684 13.2607 34.6776 13.5686 35.0066 14.0484C35.6347 15.0081 35.9039 16.1218 35.9039 17.6881Z" fill="#EC3236"/>
<path fill-rule="evenodd" clip-rule="evenodd" d="M29.3134 17.2535C29.4131 16.4024 29.2934 16.4205 29.114 15.7596C28.4958 14.9991 27.748 14.5283 26.6213 14.9176C24.707 15.5967 25.0759 18.684 27.3093 18.8289C27.7879 18.8561 28.3662 18.5663 28.6354 18.349C28.9844 18.0774 29.2236 17.7062 29.3134 17.2535Z" fill="#007CC2"/>
<path fill-rule="evenodd" clip-rule="evenodd" d="M22.6731 20.015C22.6133 19.6075 22.4936 18.9466 22.2543 18.684C20.7887 18.5935 16.1623 18.177 15.1154 19.7433C14.8861 20.0965 14.8661 20.4134 15.0157 20.8661C15.1952 21.4274 15.4146 21.6447 15.4743 21.9073H15.6339C15.6738 19.9969 19.1635 19.6257 20.4796 19.8248L22.6731 20.015Z" fill="#EC3236"/>
<path fill-rule="evenodd" clip-rule="evenodd" d="M34.3785 41.6992C34.4582 41.4276 34.2788 41.6177 34.548 41.4548C34.6377 41.4095 34.7873 41.3733 34.9069 41.3461C34.8272 41.491 35.0066 41.5272 34.3785 41.6992ZM34.1093 41.1922C34.2688 40.9387 34.3386 40.9206 34.6277 40.8572C34.5779 41.0473 34.7275 40.9206 34.4881 41.0745C34.3685 41.1469 34.2489 41.156 34.1093 41.1922ZM33.85 40.6942C33.9298 40.5041 33.86 40.5313 34.0893 40.4317C34.4682 40.2597 34.3485 40.4317 34.3984 40.4951L33.85 40.6942ZM33.6108 40.1962C33.6805 39.988 33.5509 40.1148 33.7703 39.979C33.87 39.9156 34.0195 39.8884 34.1392 39.8522C33.9797 40.1148 33.9198 40.1419 33.6108 40.1962ZM33.3415 39.6983C33.4612 39.49 33.2718 39.6168 33.5709 39.4448C33.6706 39.3814 33.7603 39.3814 33.86 39.3542C33.8201 39.5082 33.9996 39.5535 33.3415 39.6983ZM33.6407 38.8472C33.521 39.0736 33.2917 39.2456 33.0823 39.0917L33.6407 38.8472ZM32.853 38.6843C32.9228 38.4307 33.1122 38.4036 33.3914 38.3583C33.3017 38.5303 33.4612 38.476 33.1222 38.6209C33.0723 38.639 32.9228 38.6752 32.853 38.6843ZM32.8231 37.6069C32.2448 38.476 32.4841 38.4941 33.2219 39.9699C33.4014 40.3412 34.1193 41.8531 34.3984 42.1791C34.1691 42.496 34.1292 42.1882 34.0893 42.6499C34.3884 42.7133 34.2987 42.7133 34.6078 42.5503L36.3726 41.7083V41.3914C36.1333 41.3914 36.0834 41.4276 35.904 41.4729C35.8242 41.1379 35.4852 40.5675 35.3257 40.2325L34.0893 37.8423C33.6905 37.2085 33.0624 37.5525 32.8231 37.6069Z" fill="#20AEE0"/>
<path fill-rule="evenodd" clip-rule="evenodd" d="M26.2823 36.8916L26.4119 36.8191C26.382 36.3665 26.1328 35.5335 26.0131 35.0355C25.8735 34.5104 25.7539 33.6683 25.5744 33.27C25.4348 33.0617 25.375 33.098 25.0559 32.9893C24.8366 32.9169 24.6771 32.8535 24.4677 32.7811C24.0888 32.6453 23.6102 32.4642 23.2014 32.3827C23.2612 32.5004 23.3011 32.609 23.351 32.7267C23.7598 33.6231 24.7967 35.0989 25.385 35.8957C25.6841 36.294 26.043 36.5475 26.2823 36.8916Z" fill="#007CC2"/>
<path fill-rule="evenodd" clip-rule="evenodd" d="M29.114 15.7596C29.2935 16.4205 29.4131 16.4024 29.3135 17.2535C30.7591 16.5111 30.6794 15.6781 33.4512 15.6781C32.2846 13.9307 30.4999 14.8723 29.114 15.7596Z" fill="#EC3236"/>
<path fill-rule="evenodd" clip-rule="evenodd" d="M22.8825 26.0902C23.0021 25.6103 23.1318 23.202 22.9623 22.8127C22.4837 23.3287 21.1177 26.4523 21.0679 26.9594C21.3271 27.1314 21.8655 27.5116 22.1746 27.5841C22.2942 27.3668 22.4039 27.0861 22.5136 26.8235C22.6233 26.552 22.6831 26.3165 22.8825 26.0902Z" fill="#EC3236"/>
<path fill-rule="evenodd" clip-rule="evenodd" d="M25.5248 24.044C25.6045 23.5732 25.7641 23.0752 25.8638 22.6678C25.9236 22.4143 25.9835 22.2332 26.0433 21.9706C26.113 21.6538 26.0533 21.4727 26.3424 21.4636L25.9535 21.3006C25.5048 21.2644 25.0661 21.5451 24.8767 21.9253C24.7271 22.2061 24.4181 23.4374 24.3782 23.7995L25.5248 24.044Z" fill="#ED454A"/>
<path fill-rule="evenodd" clip-rule="evenodd" d="M25.5247 24.044L26.5915 24.3609C26.7211 23.8267 26.9206 23.2292 27.0102 22.7312C27.1199 22.0883 26.8109 21.527 26.3423 21.4636C26.0531 21.4727 26.1129 21.6538 26.0431 21.9706C25.9833 22.2332 25.9235 22.4143 25.8636 22.6678C25.7639 23.0752 25.6044 23.5732 25.5247 24.044Z" fill="#EC3236"/>
<path fill-rule="evenodd" clip-rule="evenodd" d="M24.7768 26.5157L24.8466 26.6696C24.7269 26.7964 24.9762 26.733 24.5774 26.8417C25.056 27.2853 25.7838 26.6244 25.9333 26.2894C26.063 25.9906 26.3222 25.0037 26.3621 24.6415L25.3052 24.3518C25.3052 24.8226 24.9064 25.9725 24.7768 26.5157Z" fill="#3096CD"/>
<path fill-rule="evenodd" clip-rule="evenodd" d="M24.5775 26.8417C24.9763 26.733 24.727 26.7964 24.8467 26.6696L24.5177 26.6425C24.3781 26.4705 24.2385 26.3709 24.1487 26.1626C23.9393 25.5922 24.2285 25.6194 24.2285 25.6194C24.418 26.0902 24.1886 26.2894 24.7769 26.5157C24.9065 25.9725 25.3054 24.8226 25.3054 24.3518L24.2983 24.0892C24.2086 24.5872 23.9693 25.1486 23.8796 25.6646C23.7799 26.2894 24.1188 26.7602 24.5775 26.8417Z" fill="#55A8D4"/>
<path fill-rule="evenodd" clip-rule="evenodd" d="M31.0882 42.2606C31.4172 42.0432 31.6466 41.7354 31.9357 41.4457C32.185 41.2012 32.6536 40.8662 32.7433 40.5222C32.0254 40.1419 31.3275 40.1601 30.9187 40.984C30.6296 41.5453 30.8689 41.835 31.0882 42.2606Z" fill="#007CC2"/>
<path fill-rule="evenodd" clip-rule="evenodd" d="M31.2478 42.4145C32.3845 43.175 33.7105 42.1338 32.9827 40.7576C32.6736 40.8391 31.3874 42.2153 31.2478 42.4145Z" fill="#007CC2"/>
<path fill-rule="evenodd" clip-rule="evenodd" d="M29.1938 38.7114C29.1938 39.1188 29.1938 39.4086 29.5528 39.7707C30.1909 40.4045 31.168 40.0876 31.3275 39.4991C30.6296 39.3361 29.1938 38.0234 29.1938 38.7114Z" fill="#EC3236"/>
<path fill-rule="evenodd" clip-rule="evenodd" d="M29.4331 38.313L31.4073 39.4176C32.2049 37.8966 29.7322 37.1722 29.4331 38.313Z" fill="#EC3236"/>
<path fill-rule="evenodd" clip-rule="evenodd" d="M34.9568 42.496C35.0166 42.7676 35.1462 42.9759 35.2659 43.2022C34.9967 43.2746 35.0266 43.2474 34.9568 43.5191C35.2659 43.6639 36.5621 43.003 36.592 42.7857C36.6418 42.4236 36.2729 42.659 36.1334 42.7314C36.0636 42.4326 35.9738 42.3964 35.904 42.0976C35.575 42.1247 35.2061 42.3602 34.9568 42.496Z" fill="#0063B4"/>
<path fill-rule="evenodd" clip-rule="evenodd" d="M32.8231 37.6069C32.9727 37.3986 33.0026 37.4348 33.3017 37.3714C32.6636 36.1763 33.0125 37.1451 32.5838 36.4298C32.4242 36.1763 32.1152 35.6421 32.0354 35.3162H31.7961C31.8061 35.7327 32.1052 36.1944 32.2847 36.4932C32.504 36.8916 32.3844 36.6652 32.3844 37.0636C32.3844 37.3533 32.514 37.3624 32.5838 37.6793C32.6935 37.6249 32.6735 37.643 32.8231 37.6069Z" fill="#0063B4"/>
<path fill-rule="evenodd" clip-rule="evenodd" d="M26.8707 19.6257C26.7212 19.5714 26.7411 19.5623 26.5517 19.508C26.3722 19.4627 26.2625 19.4627 26.093 19.4174C25.774 19.3269 25.6045 19.2363 25.2356 19.2273C25.4749 19.4446 26.4919 19.8882 26.8707 19.6257Z" fill="#E4353D"/>
<path fill-rule="evenodd" clip-rule="evenodd" d="M24.8468 26.6696L24.777 26.5158C24.1887 26.2894 24.4181 26.0902 24.2286 25.6194C24.2286 25.6194 23.9395 25.5922 24.1488 26.1626C24.2386 26.3709 24.3782 26.4705 24.5178 26.6425L24.8468 26.6696Z" fill="#EAF4F9"/>
<path fill-rule="evenodd" clip-rule="evenodd" d="M34.3784 41.6992C35.0066 41.5272 34.8271 41.491 34.9068 41.3461C34.7872 41.3733 34.6377 41.4095 34.5479 41.4548C34.2787 41.6177 34.4582 41.4276 34.3784 41.6992Z" fill="#EAF4F9"/>
<path fill-rule="evenodd" clip-rule="evenodd" d="M33.3416 39.6983C33.9997 39.5535 33.8202 39.5082 33.8601 39.3542C33.7603 39.3814 33.6706 39.3814 33.5709 39.4448C33.2718 39.6168 33.4612 39.4901 33.3416 39.6983Z" fill="#F3F8FA"/>
<path fill-rule="evenodd" clip-rule="evenodd" d="M32.853 38.6843C32.9228 38.6752 33.0724 38.639 33.1222 38.6209C33.4612 38.476 33.3017 38.5303 33.3914 38.3583C33.1123 38.4036 32.9228 38.4307 32.853 38.6843Z" fill="#EAF4F9"/>
<path fill-rule="evenodd" clip-rule="evenodd" d="M33.8501 40.6942L34.3985 40.495C34.3486 40.4317 34.4683 40.2596 34.0894 40.4317C33.8601 40.5313 33.9299 40.5041 33.8501 40.6942Z" fill="#EAF4F9"/>
<path fill-rule="evenodd" clip-rule="evenodd" d="M33.6108 40.1962C33.9199 40.1419 33.9798 40.1148 34.1393 39.8522C34.0196 39.8884 33.8701 39.9156 33.7704 39.979C33.551 40.1148 33.6806 39.988 33.6108 40.1962Z" fill="#F3F8FA"/>
<path fill-rule="evenodd" clip-rule="evenodd" d="M34.1094 41.1922C34.249 41.156 34.3686 41.1469 34.4882 41.0745C34.7276 40.9206 34.578 41.0473 34.6278 40.8572C34.3387 40.9206 34.2689 40.9387 34.1094 41.1922Z" fill="#F3F8FA"/>
<path fill-rule="evenodd" clip-rule="evenodd" d="M33.0823 39.0917C33.2917 39.2456 33.521 39.0736 33.6406 38.8472L33.0823 39.0917Z" fill="#EAF4F9"/>
<path d="M7.26848 6.32378L8.27141 7.43039L8.16927 7.51886C7.87605 7.27825 7.5609 7.15345 7.223 7.1451C6.88434 7.13754 6.60559 7.22846 6.38593 7.41864C6.2157 7.56605 6.12032 7.72761 6.10042 7.90422C6.07893 8.08063 6.12021 8.22814 6.22193 8.3456C6.28677 8.42045 6.36215 8.47136 6.44791 8.49992C6.56266 8.5361 6.70719 8.54647 6.88078 8.53025C7.00627 8.5169 7.27151 8.45854 7.67501 8.35342C8.23975 8.20399 8.66624 8.15643 8.95377 8.20984C9.24045 8.26399 9.47957 8.40252 9.67263 8.62553C9.91739 8.90816 10.0168 9.2466 9.97245 9.64096C9.92813 10.0353 9.73652 10.3799 9.3969 10.674C9.29051 10.7662 9.17959 10.8428 9.06671 10.9033C8.95297 10.9646 8.79838 11.0269 8.60304 11.0903C8.49425 11.1264 8.41472 11.167 8.3628 11.212C8.31939 11.2496 8.28902 11.3056 8.26923 11.3809C8.25018 11.4569 8.25529 11.5419 8.28519 11.6367L8.19837 11.7118L7.09271 10.435L7.17953 10.3598C7.56303 10.6548 7.94174 10.8065 8.31317 10.8141C8.68544 10.8208 8.99202 10.7208 9.23375 10.5114C9.42021 10.35 9.52495 10.1699 9.54788 9.9728C9.57081 9.7757 9.52442 9.61031 9.40728 9.47498C9.33871 9.39582 9.25034 9.33677 9.14294 9.29869C9.03548 9.2607 8.91047 9.24527 8.76471 9.2524C8.61964 9.26027 8.39046 9.30528 8.07724 9.38736C7.63863 9.50355 7.30529 9.56573 7.07867 9.57579C6.8529 9.58515 6.64665 9.55515 6.46084 9.48674C6.27422 9.41742 6.11314 9.30363 5.97679 9.14622C5.74315 8.87635 5.64287 8.561 5.67687 8.19947C5.70996 7.83858 5.87758 7.52812 6.17894 7.26724C6.28869 7.17217 6.40615 7.09275 6.53201 7.02997C6.62809 6.98257 6.75507 6.93667 6.91386 6.89299C7.07266 6.84932 7.17384 6.80788 7.21895 6.76883C7.26236 6.73122 7.28534 6.68893 7.28715 6.64121C7.28901 6.59344 7.25763 6.50896 7.19187 6.39012L7.26848 6.32378ZM8.58149 5.37777L10.5851 4.22701L10.6423 4.32659L10.5418 4.38437C10.3904 4.47129 10.2959 4.54641 10.2577 4.61109C10.2191 4.67488 10.2043 4.7418 10.2128 4.8109C10.2203 4.88059 10.2888 5.02699 10.4172 5.25058L11.5085 7.15068C11.7082 7.49833 11.8664 7.7126 11.9826 7.79522C12.1003 7.87816 12.2396 7.92156 12.4029 7.92779C12.5656 7.93305 12.7392 7.88262 12.9218 7.77777C13.1317 7.65723 13.2835 7.50769 13.3765 7.3283C13.4696 7.14892 13.5053 6.95566 13.4832 6.74766C13.4611 6.5396 13.3322 6.22925 13.0956 5.81718L12.1865 4.2344C12.0861 4.05959 11.9953 3.94431 11.9165 3.89085C11.8372 3.83643 11.7616 3.811 11.6891 3.81372C11.578 3.81909 11.444 3.86617 11.2868 3.9565L11.2296 3.85691L12.5712 3.08635L12.6284 3.18593L12.5483 3.23195C12.44 3.29419 12.363 3.36824 12.3159 3.45368C12.269 3.53911 12.2543 3.63577 12.2732 3.74318C12.2841 3.81872 12.3348 3.93634 12.4268 4.09646L13.2736 5.57088C13.5354 6.02683 13.6942 6.37331 13.7507 6.60961C13.8068 6.84751 13.7679 7.11653 13.633 7.41991C13.4973 7.72388 13.2297 7.99051 12.8273 8.22154C12.4915 8.41449 12.2069 8.51812 11.9728 8.53317C11.6527 8.55472 11.3862 8.49998 11.1737 8.36752C10.9619 8.23596 10.7626 8.00886 10.5776 7.68664L9.48574 5.78558C9.35621 5.55997 9.26333 5.42767 9.20752 5.38698C9.15071 5.34692 9.08347 5.32707 9.00292 5.3292C8.92286 5.33229 8.80162 5.38118 8.63868 5.47736L8.58149 5.37777ZM14.9681 6.79277L14.9313 6.68398L15.0711 6.6368C15.1938 6.59546 15.2823 6.54423 15.3341 6.48279C15.3862 6.42241 15.4173 6.35251 15.4256 6.27484C15.429 6.225 15.3939 6.08945 15.3195 5.86862L14.376 3.07103C14.3022 2.85228 14.2444 2.71966 14.2037 2.67279C14.1618 2.6263 14.0998 2.59374 14.0167 2.57661C13.9334 2.55837 13.8327 2.5698 13.7131 2.61007L13.5734 2.65721L13.5367 2.54842L15.4337 1.90861C15.9405 1.73769 16.3715 1.6696 16.7262 1.70322C17.1598 1.74482 17.5321 1.90441 17.8425 2.18003C18.1532 2.4566 18.3809 2.81121 18.5267 3.24333C18.6271 3.54103 18.6719 3.83249 18.6608 4.11668C18.6494 4.39979 18.5957 4.64961 18.4997 4.865C18.4021 5.07971 18.2703 5.27037 18.1053 5.43645C17.9393 5.60301 17.7219 5.76186 17.4532 5.91304C17.3345 5.98044 17.1383 6.06088 16.8651 6.15302L14.9681 6.79277ZM15.2298 2.2412L16.3463 5.552C16.4053 5.72696 16.4502 5.83186 16.4806 5.86554C16.51 5.89969 16.5488 5.9198 16.5955 5.92788C16.6625 5.93969 16.749 5.92836 16.8557 5.8924C17.2046 5.77473 17.4314 5.5663 17.5346 5.26648C17.6771 4.8608 17.6346 4.31899 17.4068 3.64359C17.2229 3.09837 16.9911 2.6929 16.7096 2.42543C16.4881 2.21609 16.2548 2.10225 16.0105 2.08252C15.8381 2.0681 15.578 2.1214 15.2298 2.2412ZM21.0537 2.77291L21.2298 4.15344C21.2591 4.38245 21.2896 4.5238 21.3215 4.57768C21.3543 4.63131 21.4089 4.67546 21.4868 4.70866C21.565 4.74297 21.666 4.75164 21.7889 4.73595L21.9352 4.71728L21.9497 4.83122L19.6377 5.12626L19.6231 5.01236L19.7694 4.99369C19.8978 4.9773 19.9988 4.94054 20.0711 4.88479C20.1241 4.84622 20.1609 4.78819 20.1815 4.70951C20.1983 4.65402 20.1929 4.5139 20.1643 4.28946L19.7905 1.36079C19.7613 1.13183 19.7308 0.990371 19.7001 0.936429C19.6682 0.882594 19.6138 0.838496 19.5357 0.805301C19.4575 0.770989 19.3566 0.762317 19.2315 0.778276L19.0852 0.796947L19.0706 0.683051L21.3827 0.387967L21.3972 0.501915L21.2509 0.520586C21.1236 0.536811 21.0238 0.573359 20.9515 0.629163C20.8996 0.667571 20.8616 0.725768 20.8388 0.804766C20.822 0.860251 20.8274 1.00027 20.8561 1.22481L21.0169 2.48474L22.5918 2.28376L22.431 1.02384C22.4017 0.794875 22.3712 0.65342 22.3405 0.599478C22.3086 0.545642 22.2542 0.501491 22.174 0.468615C22.0947 0.434462 21.9937 0.42579 21.8697 0.44159L21.7256 0.459996L21.7111 0.346048L24.0232 0.0510154L24.0377 0.164964L23.8937 0.183318C23.7641 0.199862 23.6632 0.236566 23.593 0.29205C23.5401 0.330618 23.5021 0.388818 23.4793 0.467763C23.4626 0.523248 23.4679 0.663315 23.4965 0.887861L23.8703 3.81648C23.8995 4.04545 23.93 4.18684 23.9607 4.24084C23.9926 4.29462 24.047 4.33883 24.1273 4.37171C24.2066 4.40586 24.3076 4.41453 24.4316 4.39873L24.5756 4.38032L24.5902 4.49427L22.2781 4.7893L22.2636 4.67536L22.4077 4.657C22.5372 4.64046 22.6381 4.6037 22.7082 4.54826C22.7612 4.5097 22.7992 4.4515 22.8221 4.37256C22.8388 4.31707 22.8334 4.17695 22.8047 3.95245L22.6285 2.57193L21.0537 2.77291ZM27.5523 3.29845L25.9865 3.25967L25.7809 3.69163C25.7154 3.83638 25.682 3.95719 25.6796 4.05284C25.6765 4.18009 25.7248 4.27478 25.8235 4.33803C25.8823 4.37442 26.0279 4.40506 26.2605 4.42884L26.2576 4.54369L24.7707 4.50682L24.7735 4.39197C24.934 4.37117 25.0685 4.30691 25.1736 4.2003C25.2799 4.09252 25.4139 3.86835 25.5732 3.52762L27.2602 0L27.3231 0.00159488L28.8453 3.70786C28.9909 4.06289 29.1114 4.28776 29.2082 4.38138C29.2819 4.45304 29.3857 4.49501 29.5227 4.5097L29.5198 4.62455L27.3563 4.57093L27.3591 4.45607L27.4481 4.45831C27.6215 4.46256 27.7448 4.44086 27.8157 4.39309C27.865 4.35936 27.89 4.30818 27.8916 4.24174C27.8926 4.2012 27.888 4.15945 27.8756 4.11636C27.8715 4.0971 27.841 4.01182 27.7827 3.86287L27.5523 3.29845ZM27.4525 3.05273L26.8228 1.51086L26.1017 3.01921L27.4525 3.05273ZM32.2418 0.736939L33.7678 3.93607L34.2 2.06204C34.2609 1.79759 34.2646 1.61124 34.2104 1.50053C34.1363 1.35052 33.9769 1.25019 33.7334 1.1987L33.7592 1.08677L35.201 1.4192L35.1752 1.53112C34.9853 1.51277 34.8542 1.5149 34.7819 1.53756C34.7105 1.56155 34.647 1.61156 34.5911 1.6888C34.5362 1.76631 34.4848 1.90925 34.437 2.11667L33.599 5.75063L33.4905 5.72563L31.3833 1.40792L30.7417 4.19051C30.6835 4.44283 30.7011 4.62716 30.7958 4.74265C30.8906 4.85803 31.0132 4.93256 31.1613 4.96672L31.2645 4.99049L31.2387 5.10242L29.685 4.74419L29.7108 4.63226C29.9527 4.68578 30.1308 4.67482 30.2488 4.59918C30.3657 4.52326 30.4508 4.36952 30.5047 4.13588L31.2164 1.04937L31.1513 0.915363C31.0865 0.775614 31.0233 0.678954 30.9606 0.625225C30.8989 0.571761 30.8017 0.527396 30.6699 0.492392L30.6958 0.380465L32.2418 0.736939ZM37.4323 5.86788L36.0053 5.22222L35.6477 5.53997C35.531 5.6478 35.4532 5.74606 35.4138 5.83325C35.3613 5.94922 35.3689 6.05524 35.4351 6.15195C35.4752 6.20834 35.5974 6.2933 35.8023 6.40581L35.7549 6.51045L34.3998 5.8973L34.4471 5.79266C34.603 5.83601 34.7519 5.82921 34.8902 5.77191C35.0302 5.71414 35.2409 5.55981 35.5203 5.30808L38.448 2.71615L38.5055 2.74211L38.4638 6.74861C38.4595 7.13227 38.483 7.3864 38.5357 7.51029C38.5757 7.60498 38.6548 7.68409 38.7753 7.75096L38.728 7.8556L36.7562 6.96348L36.8035 6.85884L36.8846 6.89555C37.0426 6.96699 37.1646 6.99503 37.2486 6.97864C37.3071 6.96683 37.35 6.92938 37.3774 6.86884C37.3941 6.83192 37.4062 6.79165 37.4115 6.74707C37.4153 6.72776 37.4204 6.63733 37.4247 6.47747L37.4323 5.86788ZM37.4362 5.60269L37.4568 3.93735L36.2051 5.04566L37.4362 5.60269ZM42.7577 5.24244L42.9479 8.78187L44.0623 7.21436C44.2195 6.99316 44.294 6.8223 44.2861 6.6993C44.2749 6.53237 44.1658 6.37884 43.9603 6.23835L44.0269 6.14472L45.2328 7.00199L45.1663 7.09562C44.9977 7.0062 44.8758 6.95816 44.8004 6.95156C44.7252 6.94646 44.6474 6.96853 44.5662 7.01854C44.4859 7.06929 44.3839 7.1818 44.2605 7.35528L42.0997 10.3948L42.0089 10.3302L41.7081 5.53524L40.0536 7.86262C39.9036 8.07371 39.8495 8.2508 39.893 8.39364C39.9366 8.53647 40.0215 8.65217 40.1453 8.74022L40.2316 8.80155L40.1651 8.89518L38.8656 7.97136L38.9321 7.87773C39.1353 8.01945 39.3042 8.07727 39.4421 8.05238C39.5791 8.02679 39.7164 7.91715 39.8554 7.7217L41.6906 5.14009L41.6816 4.99145C41.675 4.8375 41.6534 4.72408 41.616 4.65046C41.5794 4.57752 41.5065 4.49943 41.398 4.41681L41.4646 4.32319L42.7577 5.24244ZM42.8277 10.8363L42.9108 10.757L43.0126 10.8638C43.102 10.9574 43.1859 11.0159 43.2634 11.0369C43.3402 11.0586 43.4167 11.0572 43.4906 11.0319C43.5372 11.0139 43.6451 10.9248 43.8138 10.7639L45.9498 8.72575C46.1169 8.56642 46.2126 8.4579 46.2378 8.40119C46.2622 8.34363 46.2655 8.27362 46.2459 8.19117C46.2271 8.10786 46.1743 8.02142 46.0872 7.93018L45.9854 7.82341L46.0684 7.74415L47.4505 9.19261C47.8198 9.57962 48.0637 9.94131 48.1833 10.277C48.3289 10.6874 48.3417 11.0923 48.2233 11.4901C48.1041 11.8887 47.8791 12.245 47.5491 12.5598C47.3218 12.7767 47.0767 12.9406 46.8145 13.0507C46.5531 13.1601 46.304 13.2171 46.0682 13.2212C45.8324 13.2236 45.6039 13.1848 45.3836 13.1055C45.1624 13.0255 44.9266 12.8958 44.6759 12.7162C44.5647 12.6372 44.4087 12.4933 44.2098 12.2848L42.8277 10.8363ZM47.0629 9.14851L44.535 11.5605C44.4014 11.688 44.3253 11.773 44.3076 11.8148C44.2892 11.8558 44.2873 11.8996 44.2997 11.9453C44.3174 12.011 44.3642 12.0845 44.4419 12.166C44.6961 12.4324 44.9809 12.5498 45.2962 12.5165C45.7241 12.474 46.1971 12.2063 46.7128 11.7143C47.1291 11.3171 47.3985 10.9356 47.5218 10.5673C47.6178 10.2781 47.6222 10.0186 47.5369 9.78879C47.477 9.62649 47.3187 9.41338 47.0629 9.14851Z" fill="#007CC2"/>
<path d="M2.33195 31.4463L1.0924 31.5404C0.848757 31.559 0.697146 31.5852 0.636607 31.6203C0.575962 31.6542 0.529414 31.7108 0.497016 31.7901C0.465683 31.8681 0.457174 32.0088 0.472548 32.2109L0.358012 32.2196L0.185547 29.9494L0.300028 29.9406C0.315721 30.1473 0.345511 30.2862 0.390357 30.3561C0.434138 30.4273 0.488611 30.4752 0.552554 30.4996C0.616604 30.5253 0.77045 30.5283 1.01404 30.5097L3.91755 30.2891C4.1612 30.2706 4.31281 30.2445 4.37335 30.2093C4.43405 30.1753 4.48059 30.1199 4.5131 30.0417C4.54443 29.9637 4.55294 29.823 4.53741 29.6187L4.65194 29.61L4.79983 31.5569C4.84856 32.198 4.76903 32.6671 4.56225 32.9628C4.35446 33.2597 4.07986 33.4207 3.73743 33.4467C3.4466 33.4687 3.19162 33.3978 2.97128 33.2328C2.7511 33.0688 2.59188 32.8313 2.49261 32.5204C2.42372 32.3122 2.37047 31.9537 2.33195 31.4463ZM4.52134 31.2799L2.58794 31.4268C2.58895 31.5002 2.59092 31.5553 2.59374 31.5924C2.61411 31.8607 2.7096 32.0624 2.8801 32.1951C3.05049 32.3278 3.30307 32.382 3.63768 32.3566C3.97001 32.3314 4.20695 32.2399 4.34978 32.0834C4.49262 31.9269 4.55353 31.7032 4.53166 31.4158L4.52134 31.2799ZM3.00506 35.4488L1.66635 35.8294C1.4443 35.8925 1.30907 35.9439 1.26061 35.9834C1.21247 36.024 1.17693 36.0845 1.15581 36.1665C1.13358 36.2489 1.14012 36.3501 1.17395 36.4692L1.21433 36.6111L1.10384 36.6426L0.466376 34.4005L0.576867 34.3692L0.617191 34.511C0.65262 34.6356 0.704061 34.7299 0.769972 34.793C0.815988 34.8397 0.878921 34.8674 0.959781 34.876C1.01718 34.8843 1.15491 34.858 1.37254 34.7961L4.21243 33.9887C4.43442 33.9256 4.5697 33.8742 4.61848 33.8358C4.66694 33.7962 4.70243 33.7358 4.72355 33.6537C4.74578 33.5713 4.73924 33.4702 4.70477 33.3488L4.66444 33.207L4.77488 33.1756L5.41235 35.4175L5.30185 35.449L5.26153 35.307C5.22642 35.1836 5.17541 35.0904 5.10939 35.0272C5.06369 34.9817 5.00044 34.9528 4.91894 34.942C4.86159 34.9338 4.72392 34.9601 4.50618 35.0219L3.28445 35.3693L3.7187 36.8965L4.94038 36.5491C5.16243 36.486 5.29771 36.4346 5.34644 36.3962C5.39495 36.3567 5.43038 36.2962 5.45091 36.212C5.47283 36.1285 5.46634 36.0273 5.43214 35.9071L5.3924 35.7673L5.50289 35.736L6.14035 37.9779L6.02986 38.0094L5.99012 37.8697C5.95443 37.744 5.90309 37.6497 5.83771 37.5887C5.79164 37.5421 5.72844 37.5132 5.64695 37.5024C5.58955 37.4942 5.45193 37.5205 5.23419 37.5824L2.39435 38.3898C2.17231 38.4529 2.03708 38.5042 1.9883 38.5427C1.93984 38.5822 1.9043 38.6427 1.88382 38.7269C1.86185 38.8105 1.86839 38.9116 1.9026 39.0319L1.94234 39.1716L1.83184 39.2029L1.19438 36.961L1.30487 36.9295L1.34461 37.0693C1.38031 37.195 1.43169 37.2892 1.49702 37.3502C1.54309 37.3968 1.60629 37.4257 1.68779 37.4365C1.74519 37.4447 1.88286 37.4184 2.10055 37.3566L3.43926 36.9759L3.00506 35.4488ZM4.24115 41.2621L3.52591 39.8687L3.04826 39.8949C2.88978 39.9066 2.76775 39.9352 2.68258 39.9788C2.56937 40.037 2.50937 40.1247 2.50101 40.2416C2.49724 40.3107 2.54006 40.4532 2.63044 40.6688L2.52825 40.7212L1.84897 39.398L1.95117 39.3455C2.04623 39.4765 2.16704 39.5638 2.31099 39.6051C2.45644 39.6469 2.71742 39.6572 3.09289 39.6341L6.99757 39.427L7.02636 39.4831L4.50054 42.5934C4.25844 42.8911 4.11864 43.1045 4.08279 43.2343C4.05518 43.3333 4.06794 43.4445 4.12061 43.5719L4.01842 43.6243L3.03011 41.699L3.13231 41.6466L3.17295 41.7257C3.25211 41.8799 3.3302 41.9778 3.40617 42.0173C3.45931 42.0444 3.51623 42.0418 3.57534 42.0115C3.6114 41.993 3.64587 41.9689 3.67774 41.9374C3.69274 41.9246 3.75296 41.857 3.8559 41.7345L4.24115 41.2621ZM4.4092 41.0569L5.46166 39.7661L3.79217 39.8548L4.4092 41.0569ZM6.72148 43.8904L5.72797 44.6709C5.53848 44.8198 5.42713 44.9259 5.39724 44.988C5.36569 45.0501 5.35947 45.1223 5.37612 45.2037C5.39351 45.286 5.46475 45.4076 5.59136 45.5687L5.50103 45.6397L4.08614 43.8387L4.17641 43.7678C4.30446 43.9307 4.40644 44.0295 4.48177 44.0634C4.55773 44.0982 4.62965 44.1076 4.69551 44.0931C4.76302 44.0787 4.89154 43.9963 5.08103 43.8475L7.38145 42.0402C7.57179 41.8907 7.68228 41.7852 7.71223 41.7231C7.74372 41.6611 7.74994 41.5889 7.73329 41.5075C7.7159 41.4252 7.64467 41.3036 7.51811 41.1425L7.60839 41.0715L8.8939 42.7078C9.22851 43.1337 9.44348 43.4674 9.53924 43.7115C9.63595 43.9549 9.65361 44.2015 9.59238 44.4516C9.53195 44.701 9.3947 44.909 9.18133 45.0767C8.92188 45.2805 8.63297 45.3556 8.31618 45.3024C8.11424 45.2678 7.9022 45.1637 7.68004 44.9903L7.1503 46.7711C7.08476 47.0031 7.05178 47.1579 7.0505 47.2347C7.05306 47.3472 7.08918 47.4534 7.15764 47.5515L7.062 47.6266L6.19105 46.518L6.90304 44.1216L6.72148 43.8904ZM8.44273 42.5381L6.9074 43.7443L7.02359 43.8922C7.21276 44.1331 7.37682 44.2963 7.51412 44.3818C7.65233 44.4665 7.80575 44.4977 7.97353 44.4762C8.14132 44.4546 8.31809 44.3716 8.50226 44.2269C8.76963 44.0168 8.91768 43.7988 8.94646 43.5729C8.97513 43.3471 8.88028 43.0951 8.66116 42.8162L8.44273 42.5381ZM10.4141 48.5897L13.2729 47.1593L14.6418 48.3463L14.5665 48.4331L14.4568 48.3379C14.3581 48.2523 14.2627 48.2009 14.1721 48.1849C14.1098 48.1726 14.0427 48.183 13.9692 48.2177C13.916 48.2431 13.8152 48.3404 13.6669 48.5114L11.7327 50.742C11.5815 50.9164 11.4965 51.0334 11.4766 51.0923C11.4578 51.1519 11.4612 51.2219 11.4901 51.3036C11.5175 51.3856 11.5783 51.4666 11.6728 51.5486L11.7825 51.6437L11.7073 51.7304L9.94625 50.2035L10.0215 50.1167L10.1313 50.2119C10.23 50.2974 10.3254 50.3489 10.4152 50.3657C10.4775 50.378 10.5454 50.3668 10.6195 50.3311C10.672 50.3067 10.7729 50.2093 10.9211 50.0383L13.0929 47.5338L9.12105 49.4879L9.06153 49.4363L10.3965 45.2345L8.33246 47.6147C8.18712 47.7823 8.10206 47.889 8.07743 47.9346C8.02721 48.0372 8.01503 48.1458 8.04162 48.2612C8.06817 48.3767 8.1593 48.5019 8.31415 48.6362L8.23888 48.7229L7.08019 47.7182L7.15547 47.6315L7.19116 47.6624C7.26457 47.729 7.34463 47.7776 7.4322 47.8073C7.5205 47.8377 7.59929 47.8449 7.6701 47.8303C7.7417 47.8164 7.82038 47.7773 7.90688 47.7137C7.92645 47.6979 8.00194 47.6143 8.13472 47.4612L9.98923 45.3224C10.1405 45.1481 10.2264 45.0318 10.2445 44.973C10.2643 44.9142 10.2601 44.8434 10.2318 44.7608C10.2036 44.6782 10.1419 44.5964 10.0475 44.5145L9.93944 44.4208L10.0147 44.334L11.3945 45.5306L10.4141 48.5897ZM14.9632 51.8742L13.5695 51.1595L13.1968 51.4593C13.0749 51.5613 12.9924 51.6556 12.9487 51.7408C12.8907 51.854 12.8931 51.9603 12.9545 52.0602C12.9917 52.1184 13.1096 52.2093 13.3088 52.3317L13.2564 52.4339L11.9328 51.7551L11.9853 51.6529C12.1388 51.7038 12.2878 51.7043 12.4289 51.6539C12.5714 51.603 12.7894 51.4592 13.0809 51.2214L16.132 48.7759L16.1881 48.8047L15.9504 52.8043C15.9273 53.1873 15.9383 53.4422 15.9848 53.5686C16.0201 53.6651 16.0953 53.748 16.2124 53.8207L16.16 53.9229L14.2343 52.9354L14.2867 52.8332L14.3658 52.8738C14.5202 52.9529 14.6407 52.9869 14.7254 52.9746C14.7844 52.9656 14.8291 52.9304 14.8594 52.8712C14.8779 52.8351 14.8919 52.7955 14.8994 52.7513C14.9041 52.7322 14.9136 52.6421 14.9258 52.4826L14.9632 51.8742ZM14.98 51.6095L15.0821 49.9471L13.7777 50.9929L14.98 51.6095ZM21.8116 50.8321L21.3866 52.3267L21.2631 52.2916C21.2814 51.8731 21.1948 51.523 21.0008 51.2419C20.8068 50.9608 20.5494 50.7752 20.2288 50.684C19.9613 50.608 19.6935 50.615 19.4253 50.7061C19.1582 50.7975 18.937 50.9536 18.7619 51.1742C18.5375 51.4569 18.3702 51.7945 18.2587 52.1866C18.149 52.5721 18.0977 52.938 18.1038 53.2827C18.1114 53.6267 18.1947 53.9103 18.3557 54.1304C18.5163 54.3517 18.7619 54.5094 19.091 54.603C19.3619 54.68 19.6257 54.6906 19.8846 54.6367C20.1426 54.5812 20.4377 54.445 20.7694 54.2256L20.6641 54.596C20.3519 54.78 20.0485 54.8916 19.7551 54.9311C19.4618 54.9706 19.1415 54.9404 18.7928 54.8413C18.3335 54.7107 17.9524 54.5028 17.6495 54.2177C17.3456 53.9322 17.1459 53.5886 17.0511 53.1894C16.9554 52.7888 16.9634 52.3942 17.0743 52.0043C17.191 51.5938 17.4091 51.2344 17.7283 50.9272C18.0474 50.6199 18.4179 50.4161 18.8407 50.3164C19.2623 50.2173 19.6779 50.2254 20.0884 50.3421C20.3905 50.428 20.6902 50.5846 20.9887 50.8111C21.1618 50.9435 21.2745 51.0165 21.3264 51.0313C21.3947 51.0507 21.4603 51.0424 21.5242 51.0067C21.5882 50.9711 21.6421 50.901 21.6881 50.797L21.8116 50.8321ZM23.7265 55.5468L23.712 55.6607L21.4 55.3657L21.4145 55.2517L21.5608 55.2704C21.6892 55.2868 21.7961 55.2766 21.8801 55.2408C21.9411 55.2168 21.9914 55.1698 22.0311 55.0988C22.0612 55.0493 22.0912 54.9124 22.1198 54.6879L22.4936 51.7593C22.5228 51.5303 22.5288 51.3857 22.5126 51.3258C22.4953 51.2657 22.4537 51.2093 22.3864 51.1576C22.3194 51.1047 22.2239 51.071 22.0988 51.055L21.9524 51.0364L21.967 50.9224L24.2791 51.2175L24.2645 51.3314L24.1182 51.3127C23.9908 51.2965 23.8851 51.3068 23.8011 51.3426C23.7412 51.3668 23.6898 51.4136 23.6479 51.4843C23.6178 51.5338 23.5878 51.6707 23.5591 51.8952L23.1854 54.8239C23.1562 55.0528 23.1503 55.1974 23.1675 55.2575C23.186 55.3177 23.2276 55.3741 23.2947 55.4258C23.3618 55.4787 23.4574 55.5125 23.5803 55.5281L23.7265 55.5468ZM25.6079 51.5156L25.6531 53.3392L25.7421 53.3369C26.0269 53.3299 26.2307 53.2359 26.3546 53.0548C26.4774 52.8738 26.553 52.6095 26.5794 52.2619L26.7077 52.2587L26.7658 54.6024L26.6375 54.6056C26.6052 54.3507 26.5438 54.1427 26.4553 53.9827C26.3657 53.8216 26.2651 53.7149 26.1511 53.6613C26.0371 53.6078 25.8732 53.5838 25.6594 53.589L25.6905 54.8475C25.6967 55.0941 25.7105 55.2435 25.7333 55.2982C25.7549 55.3528 25.7954 55.3968 25.8536 55.4303C25.9119 55.4638 26.0047 55.4795 26.1319 55.4764L26.3998 55.4697C26.8175 55.4594 27.1504 55.3543 27.3979 55.1556C27.6452 54.9568 27.8192 54.6585 27.9185 54.2595L28.0412 54.2565L27.875 55.6832L24.0106 55.779L24.0077 55.6642L24.1552 55.6606C24.2846 55.6574 24.3887 55.6311 24.4664 55.583C24.5231 55.5501 24.5656 55.4961 24.5941 55.4199C24.6164 55.3664 24.6254 55.2265 24.6198 55.0003L24.5466 52.0488C24.5416 51.845 24.5328 51.7202 24.5205 51.6732C24.4971 51.5961 24.4551 51.5374 24.3944 51.4973C24.3095 51.4374 24.1951 51.4087 24.0499 51.4123L23.9024 51.4159L23.8996 51.3011L27.6413 51.2084L27.6741 52.5322L27.5458 52.5353C27.4747 52.2127 27.3789 51.9831 27.2606 51.8452C27.1423 51.7073 26.9776 51.6078 26.7654 51.5466C26.6418 51.5103 26.4117 51.4957 26.074 51.504L25.6079 51.5156ZM30.7115 50.6169L31.0065 52.081L30.8735 52.1046C30.7448 51.7479 30.5379 51.4793 30.2519 51.2992C29.9649 51.1193 29.6789 51.0547 29.3929 51.1056C29.1712 51.1451 29.0065 51.235 28.899 51.3766C28.7902 51.5171 28.7502 51.665 28.7775 51.8179C28.7948 51.9155 28.8335 51.9978 28.8925 52.0662C28.9726 52.156 29.0914 52.2389 29.2489 52.3138C29.3635 52.3666 29.6212 52.4523 30.0217 52.5685C30.5833 52.7293 30.974 52.9068 31.1936 53.0998C31.4122 53.2931 31.5467 53.5345 31.5984 53.8249C31.6639 54.1931 31.576 54.5346 31.3361 54.8507C31.0961 55.1668 30.7551 55.3647 30.3128 55.4435C30.1742 55.4681 30.0397 55.4772 29.9118 55.4714C29.7827 55.4658 29.618 55.4402 29.4178 55.3947C29.3058 55.37 29.2167 55.3641 29.1491 55.3762C29.0925 55.3863 29.0378 55.4189 28.9822 55.4734C28.927 55.5289 28.8878 55.6046 28.865 55.7013L28.7519 55.7214L28.4558 54.0585L28.5689 54.0384C28.7474 54.4881 28.9949 54.8123 29.3102 55.009C29.6265 55.2054 29.9411 55.2764 30.2559 55.2203C30.4987 55.1771 30.6808 55.076 30.8015 54.9185C30.9221 54.7608 30.9669 54.595 30.9355 54.4188C30.9172 54.3157 30.8715 54.2197 30.7987 54.132C30.7259 54.0444 30.6264 53.9672 30.4975 53.8986C30.3689 53.8311 30.149 53.7525 29.8379 53.6626C29.4016 53.5379 29.0834 53.4207 28.8836 53.3133C28.6849 53.2058 28.5231 53.0744 28.3984 52.9205C28.2736 52.7654 28.1935 52.5852 28.157 52.3802C28.0944 52.0288 28.1697 51.7066 28.384 51.4133C28.5972 51.1203 28.9001 50.9394 29.2926 50.8695C29.4355 50.8441 29.5771 50.836 29.7173 50.8466C29.8241 50.855 29.9567 50.8806 30.1154 50.9243C30.2742 50.9681 30.3824 50.9843 30.4411 50.9739C30.4977 50.9638 30.5391 50.9392 30.565 50.8992C30.5911 50.8591 30.6074 50.7704 30.6118 50.6347L30.7115 50.6169ZM34.6703 52.0013L35.127 53.1575C35.2167 53.3847 35.2866 53.5218 35.338 53.5693C35.3884 53.6171 35.4562 53.6449 35.5415 53.6524C35.6253 53.6592 35.7622 53.6257 35.9508 53.5512L35.993 53.658L33.8753 54.4944L33.8331 54.3876C34.0259 54.3115 34.1497 54.2419 34.2033 54.1784C34.2583 54.1155 34.2879 54.0494 34.2924 53.981C34.298 53.9122 34.2553 53.7644 34.1656 53.5372L33.0959 50.8289C33.0062 50.6016 32.9363 50.4646 32.8848 50.4171C32.8345 50.3692 32.7676 50.3411 32.6834 50.3332C32.5997 50.3263 32.4627 50.3598 32.2721 50.4351L32.2299 50.3283L34.0459 49.6111C34.6439 49.3749 35.1155 49.3121 35.4592 49.4221C35.8044 49.5328 36.0393 49.7475 36.1654 50.067C36.2726 50.3382 36.2802 50.6027 36.1877 50.862C36.0962 51.1209 35.9165 51.3432 35.6488 51.53C35.4703 51.6574 35.1437 51.8143 34.6703 52.0013ZM33.8638 49.959L34.576 51.7625C34.6458 51.7398 34.6979 51.7216 34.7325 51.7079C34.9827 51.6091 35.1471 51.4582 35.2235 51.2561C35.2998 51.0541 35.2769 50.7968 35.1537 50.4847C35.0313 50.1747 34.8738 49.9754 34.6821 49.8852C34.4903 49.7951 34.2586 49.8031 33.9904 49.909L33.8638 49.959ZM39.4817 46.4866L39.5437 46.5833C39.4218 46.6936 39.3464 46.845 39.3195 47.0388C39.3014 47.1815 39.3262 47.4746 39.3931 47.9187L39.9505 51.628L39.8585 51.687L36.6491 49.5117C36.2609 49.2485 36.0198 49.1021 35.9275 49.073C35.8337 49.0435 35.7086 49.0676 35.5518 49.1441L35.4898 49.0474L37.2867 47.8947L37.3487 47.9914L37.288 48.0303C37.125 48.1349 37.0266 48.2275 36.9946 48.3069C36.9696 48.3617 36.9755 48.4168 37.0107 48.4718C37.0326 48.5059 37.0648 48.5414 37.1097 48.5781C37.1541 48.6139 37.2833 48.7049 37.4975 48.8511L39.5017 50.2089L39.1724 48.0669C39.1311 47.8045 39.0995 47.6322 39.075 47.5502C39.0515 47.4676 39.0242 47.4021 38.9926 47.3529C38.9567 47.297 38.91 47.2574 38.8526 47.2327C38.7949 47.2095 38.731 47.2036 38.6586 47.218C38.5589 47.2378 38.4434 47.2892 38.3116 47.3737L38.2496 47.277L39.4817 46.4866ZM42.422 43.5195L43.2568 44.3945L43.1736 44.4738C42.9296 44.3207 42.735 44.2293 42.5891 44.2005C42.4425 44.1707 42.2901 44.1823 42.132 44.2335C42.0445 44.2625 41.9246 44.3489 41.7731 44.4935L41.5287 44.7266L43.9165 47.2294C44.0759 47.3963 44.1843 47.4921 44.2419 47.5165C44.2994 47.541 44.3703 47.5434 44.4519 47.5247C44.5352 47.5059 44.6217 47.453 44.7129 47.366L44.8188 47.2649L44.8981 47.348L43.2117 48.957L43.1324 48.8739L43.2392 48.7721C43.3321 48.6835 43.3906 48.5948 43.4158 48.507C43.4348 48.4453 43.4308 48.376 43.4024 48.2988C43.383 48.2442 43.2955 48.1346 43.1393 47.9709L40.7515 45.4682L40.5169 45.6921C40.3001 45.8988 40.1872 46.0952 40.1764 46.2814C40.1616 46.5415 40.2501 46.8071 40.4412 47.0808L40.3483 47.1695L39.5135 46.2945L42.422 43.5195ZM44.9896 45.5806C45.0849 45.4593 45.2081 45.39 45.3591 45.3727C45.5103 45.3553 45.6448 45.3937 45.7644 45.4876C45.8847 45.5822 45.9531 45.7047 45.9705 45.8558C45.9878 46.0069 45.9494 46.1414 45.8555 46.261C45.7609 46.3813 45.6393 46.4504 45.4891 46.4685C45.3389 46.4865 45.2044 46.4481 45.084 46.3536C44.9644 46.2596 44.8953 46.138 44.8764 45.9871C44.8575 45.8362 44.895 45.701 44.9896 45.5806ZM48.0819 39.7013L49.3567 40.6288L47.3806 44.0673L47.2811 44.01L47.3545 43.8821C47.4191 43.7698 47.4508 43.6673 47.45 43.5759C47.4513 43.5104 47.4272 43.446 47.377 43.382C47.3429 43.3351 47.228 43.2548 47.0318 43.1421L44.472 41.671C44.2719 41.556 44.1407 41.4948 44.0792 41.4868C44.017 41.4796 43.949 41.4963 43.8754 41.5385C43.8008 41.5801 43.733 41.6553 43.6701 41.7647L43.5966 41.8925L43.497 41.8353L44.6853 39.7676L44.7849 39.8248L44.6873 39.9947C44.6228 40.1069 44.5911 40.2095 44.5913 40.3018C44.59 40.3673 44.6135 40.4328 44.662 40.4997C44.6961 40.5465 44.811 40.6268 45.0072 40.7396L47.485 42.1636C47.6832 42.2775 47.8169 42.3387 47.8845 42.3476C47.952 42.3566 48.0178 42.3347 48.0834 42.284C48.1274 42.2457 48.2024 42.1356 48.3068 41.954L48.4919 41.6318C48.6098 41.4268 48.6718 41.2352 48.6781 41.057C48.6844 40.8788 48.6387 40.6941 48.5397 40.5047C48.4407 40.3154 48.2647 40.0882 48.0112 39.8244L48.0819 39.7013ZM46.4023 35.3367L47.5477 35.7247L47.5109 35.8335C47.2237 35.8111 47.0088 35.8204 46.8662 35.8625C46.7225 35.9041 46.5928 35.985 46.4766 36.1038C46.4125 36.17 46.3464 36.3021 46.2791 36.5005L46.1708 36.8204L49.447 37.9303C49.6656 38.0043 49.8061 38.0388 49.8685 38.0338C49.9308 38.0288 49.9947 37.9981 50.0583 37.9436C50.1234 37.8884 50.1755 37.8013 50.2159 37.6819L50.2629 37.5433L50.3717 37.5802L49.6238 39.7877L49.5151 39.7509L49.5624 39.6112C49.6036 39.4896 49.6144 39.3839 49.596 39.2944C49.5842 39.231 49.5485 39.1713 49.4875 39.1162C49.445 39.0769 49.3167 39.0203 49.1024 38.9477L45.8261 37.8379L45.7221 38.1451C45.626 38.4287 45.617 38.6551 45.6938 38.825C45.8013 39.0623 46.0029 39.2566 46.2992 39.4105L46.258 39.5321L45.1126 39.1441L46.4023 35.3367ZM50.9454 35.7991L50.8315 35.7845L50.8501 35.6382C50.8666 35.5098 50.8591 35.4078 50.8265 35.3344C50.795 35.2611 50.7456 35.2026 50.6795 35.1612C50.6361 35.1364 50.4988 35.1087 50.2677 35.0792L47.339 34.7054C47.11 34.6762 46.9654 34.6703 46.9055 34.6864C46.8454 34.7037 46.789 34.7453 46.7373 34.8125C46.6845 34.8796 46.6507 34.9751 46.6348 35.1003L46.6161 35.2466L46.5021 35.232L46.7556 33.2461C46.8233 32.7155 46.9504 32.2981 47.1356 31.9937C47.3624 31.622 47.6687 31.3568 48.0522 31.1981C48.4368 31.0394 48.8553 30.9895 49.3076 31.0472C49.6192 31.087 49.901 31.174 50.1518 31.3082C50.4014 31.4422 50.6027 31.5996 50.7545 31.7801C50.905 31.9617 51.0189 32.1635 51.0962 32.3845C51.1735 32.6066 51.2214 32.8715 51.24 33.1793C51.2487 33.3155 51.2353 33.5272 51.1988 33.8131L50.9454 35.7991ZM46.9657 33.5749L50.4316 34.0172C50.6147 34.0405 50.7287 34.046 50.7722 34.0334C50.8158 34.0219 50.8509 33.9958 50.8785 33.9573C50.9184 33.9022 50.946 33.8194 50.9603 33.7078C51.0069 33.3425 50.9185 33.0474 50.694 32.8236C50.3912 32.5182 49.8853 32.3197 49.1783 32.2295C48.6075 32.1566 48.1416 32.1879 47.778 32.3243C47.4929 32.432 47.2886 32.5922 47.164 32.8033C47.0758 32.952 47.0101 33.2093 46.9657 33.5749ZM50.4513 30.1649C50.4551 30.0107 50.5124 29.8814 50.6231 29.7772C50.7338 29.673 50.8646 29.6232 51.0166 29.627C51.1696 29.6308 51.2977 29.688 51.402 29.7988C51.5063 29.9095 51.556 30.0402 51.5522 30.1922C51.5484 30.3453 51.4923 30.4734 51.3827 30.5777C51.2731 30.682 51.1423 30.7317 50.9893 30.7279C50.8373 30.7241 50.7091 30.668 50.6038 30.5584C50.4983 30.4487 50.4475 30.318 50.4513 30.1649Z" fill="#007CC2"/>
</svg>
