<svg width="100" height="56" viewBox="0 0 100 56" fill="none" xmlns="http://www.w3.org/2000/svg">
<path fill-rule="evenodd" clip-rule="evenodd" d="M46.1713 28.7438C46.7638 28.8564 47.4475 29.1155 47.9945 29.3069C48.2907 29.4083 48.5186 29.4984 48.8377 29.5998C49.2935 29.7574 49.3846 29.7011 49.5783 29.994C50.1025 30.039 53.4639 31.2104 54.5464 31.2216C54.0451 31.9762 51.561 34.6118 50.7862 35.0397L50.6039 35.1411C50.1709 35.7831 48.1084 37.0108 47.3678 37.4275C43.1403 39.7251 39.2319 38.7565 38.0469 33.8909C37.8874 33.2602 37.9671 33.1251 37.6823 32.7872C37.6823 34.3978 37.5227 35.6029 37.876 37.4162C38.1267 38.7227 38.7306 40.0517 39.4598 40.8852C41.9211 43.6221 45.8865 42.2705 48.7465 40.5811C49.7151 40.0179 51.5382 38.6664 52.37 37.9118L55.5948 34.7131C56.1531 34.0148 57.4863 32.5732 57.8395 31.8974C59.3208 31.8974 61.9188 32.3704 64.0382 32.0889C65.0296 31.9537 65.9184 31.8861 66.8755 31.6609C68.6417 31.2216 69.8381 30.7261 71.1143 29.4533C72.8463 27.7527 72.6071 24.8693 71.4562 22.9209L71.0802 22.3802C71.1143 23.1799 71.7411 24.4751 70.8295 26.1533C69.1203 29.2731 63.3432 29.9264 60.3577 29.5097C56.9165 29.0479 56.3924 29.2056 52.5296 28.068C51.3331 27.7189 50.2392 27.3584 49.0542 26.9305C48.4617 26.7052 48.0173 26.5025 47.4589 26.2547C43.5505 24.5315 40.5651 23.011 37.2607 20.3304C35.5514 18.9676 33.9676 17.4358 32.8167 15.5437C32.304 14.7102 31.6545 13.3925 31.5747 12.1873C31.2556 8.189 34.7196 7.22039 35.3122 6.71356C32.9193 6.71356 29.5236 7.96374 28.2816 10.0699C25.6267 14.5751 31.8254 20.2741 35.0273 22.6506C37.0783 24.1936 39.1978 25.41 41.5337 26.6264C41.0893 28.4847 40.7816 31.1428 41.1121 33.3278C41.2488 34.2401 41.6362 35.3776 42.4339 35.7043C42.9352 35.9183 43.3226 35.8957 43.9607 35.7493C44.3368 35.6592 45.0774 35.4114 45.2711 35.1411C44.3596 34.7131 43.3112 34.8145 42.7871 32.3366C42.4566 30.7936 42.6959 28.7213 43.015 27.4148C43.4594 27.5161 44.1886 27.8991 44.5875 28.0793C45.1002 28.3158 45.6927 28.5411 46.1713 28.7438Z" fill="#EC3236"/>
<path fill-rule="evenodd" clip-rule="evenodd" d="M48.1541 20.871C47.4932 20.7584 47.0032 20.0939 47.1514 19.2041C47.2767 18.472 47.6185 17.6723 47.7439 16.9628L49.191 17.3457L50.7179 17.7512C50.6609 18.2693 50.2849 19.6659 50.1026 20.0939C49.8861 20.5669 48.8378 21.5017 48.1541 20.871ZM49.5101 16.9065L47.8692 16.5573C47.9262 16.0392 48.3706 14.2935 48.5757 13.8993C48.8492 13.3587 49.4873 12.9645 50.1254 13.0095L50.6837 13.246C51.356 13.3361 51.8004 14.1245 51.6409 15.0368C51.5155 15.7464 51.2307 16.5911 51.0369 17.357L49.5101 16.9065ZM44.8154 9.29275C45.1573 9.66443 45.3282 10.6105 45.4194 11.1849C45.4763 11.7255 45.6586 12.3901 45.7156 12.987C45.7726 13.7979 45.8296 14.2597 45.8296 15.1607C46.0689 15.7126 45.8865 19.1253 45.7156 19.8123C45.7156 20.9611 45.727 22.1212 45.7156 23.2813C45.7042 24.7567 45.6928 24.4751 47.3679 25.1284C50.9572 26.5588 49.9545 26.4799 50.1823 24.8806C50.6609 21.6031 53.0082 16.7713 55.3897 14.316C55.6062 13.9331 56.5292 12.9645 56.9394 12.7167C57.8396 11.7143 59.0132 10.8808 60.2211 10.1825C60.7338 9.88969 63.856 8.5494 64.4257 8.50435C64.9157 8.02005 65.9754 8.14394 66.3856 7.62585L64.4143 7.88489L53.2703 10.374C52.6208 10.4866 52.1422 10.633 51.4472 10.633C50.9002 11.0047 49.4417 10.374 49.0998 10.0699C48.6327 9.79958 48.3706 9.70948 47.9034 9.36033C44.3938 6.76987 42.2516 2.63638 41.6477 2.23092C41.6705 2.53502 42.2858 3.52615 42.4795 3.86404C42.8441 4.44971 43.072 4.92275 43.3797 5.55347C43.7215 6.24051 44.7585 8.61698 44.8154 9.29275Z" fill="#007CC2"/>
<path fill-rule="evenodd" clip-rule="evenodd" d="M55.3896 14.316C56.438 14.6652 59.7424 16.5799 60.6654 17.1205C61.2123 17.4471 61.7365 17.8976 62.2493 18.2355C62.1125 18.8775 61.634 19.9137 61.3491 20.4768C60.6654 21.8734 60.0159 23.2925 59.2069 24.6216C58.9448 25.0496 58.17 26.2209 58.0674 26.6264C58.4776 26.6714 59.1613 26.7953 59.5601 26.8404L61.2351 26.9642C61.8277 25.883 62.4999 24.8018 63.0241 23.698C63.2292 23.2925 64.4712 20.4656 64.7447 20.2628C64.8701 20.6908 65.736 21.299 66.4425 22.4929C67.149 23.7093 67.149 24.0021 67.0237 25.624C69.8837 23.7318 67.2743 20.3304 65.5765 18.6635C65.2347 18.3143 65.0865 18.1679 64.6877 17.8526L62.0556 15.7577C60.4375 14.5751 57.0647 12.8068 56.9393 12.7167C56.5291 12.9645 55.6061 13.9331 55.3896 14.316Z" fill="#EC3236"/>
<path fill-rule="evenodd" clip-rule="evenodd" d="M64.4143 7.8849L66.3856 7.62585C65.9754 8.14394 64.9157 8.02005 64.4257 8.50436C64.3573 9.69822 64.1522 12.6604 63.7306 13.5389C63.9585 13.6966 64.0953 13.8317 64.3573 14.0344L65.5994 15.0368C65.9412 15.3071 65.9298 15.4536 66.3286 15.5549L66.9667 12.9307C67.8669 8.99992 68.3113 2.44492 64.1864 0.440123C62.3861 -0.438383 59.1841 0.169813 58.7397 0.778009C60.0957 0.778009 60.5629 0.766747 61.4631 1.22853C62.2037 1.6002 62.6481 2.03945 63.1267 2.71523C64.0269 4.07804 64.4143 5.65484 64.4143 7.8849Z" fill="#EC3236"/>
<path fill-rule="evenodd" clip-rule="evenodd" d="M54.9453 7.26544C55.0934 6.06031 54.9225 6.08283 54.6604 5.14801C53.7716 4.06677 52.7005 3.40226 51.0825 3.95414C48.3363 4.91149 48.8605 9.29276 52.0738 9.50675C52.7575 9.54054 53.5893 9.13508 53.9767 8.81972C54.4781 8.43678 54.8199 7.90742 54.9453 7.26544Z" fill="#007CC2"/>
<path fill-rule="evenodd" clip-rule="evenodd" d="M45.4193 11.1849C45.3281 10.6105 45.1572 9.66443 44.8153 9.29275C42.7073 9.16886 36.0642 8.57193 34.5601 10.802C34.2296 11.2976 34.2069 11.7481 34.4234 12.3901C34.674 13.1897 34.9931 13.4938 35.0842 13.8768H35.3121C35.3691 11.1624 40.3714 10.633 42.2629 10.9146L45.4193 11.1849Z" fill="#EC3236"/>
<path fill-rule="evenodd" clip-rule="evenodd" d="M62.2266 41.9664C62.3405 41.5722 62.0784 41.8425 62.4658 41.6173C62.5912 41.5497 62.8077 41.4934 62.9786 41.4596C62.8647 41.6623 63.1267 41.7186 62.2266 41.9664ZM61.8391 41.2456C62.067 40.8852 62.1696 40.8514 62.5798 40.7613C62.5114 41.0316 62.7279 40.8514 62.3861 41.0767C62.2038 41.178 62.0328 41.1893 61.8391 41.2456ZM61.4631 40.536C61.5771 40.2657 61.4745 40.2995 61.805 40.1644C62.3519 39.9166 62.181 40.1644 62.2493 40.2545L61.4631 40.536ZM61.1213 39.8265C61.2238 39.5336 61.0301 39.7139 61.3492 39.5224C61.4973 39.4323 61.7024 39.3872 61.8847 39.3422C61.6454 39.7139 61.5657 39.7476 61.1213 39.8265ZM60.7339 39.1169C60.9048 38.8241 60.6313 39.0043 61.0643 38.7565C61.2124 38.6664 61.3378 38.6664 61.4745 38.6326C61.4175 38.8466 61.6796 38.9142 60.7339 39.1169ZM61.1669 37.9118C60.9959 38.2384 60.6655 38.4749 60.3578 38.2609L61.1669 37.9118ZM60.0274 37.6865C60.1299 37.3261 60.4034 37.2811 60.8022 37.2247C60.6769 37.4613 60.9048 37.3824 60.4148 37.5964C60.3464 37.619 60.1299 37.664 60.0274 37.6865ZM59.9932 36.1548C59.1614 37.3824 59.5032 37.4162 60.5629 39.5111C60.825 40.0292 61.8505 42.1804 62.2493 42.6422C61.9189 43.0927 61.8619 42.6535 61.805 43.3067C62.238 43.3968 62.1126 43.3968 62.557 43.1716L65.0866 41.9777V41.5272C64.7448 41.5272 64.6764 41.5722 64.4143 41.6398C64.3004 41.1668 63.8104 40.3558 63.5825 39.8828L61.805 36.4927C61.2352 35.5916 60.335 36.0759 59.9932 36.1548Z" fill="#20AEE0"/>
<path fill-rule="evenodd" clip-rule="evenodd" d="M50.6039 35.1411L50.7862 35.0397C50.7407 34.3977 50.3874 33.2151 50.2165 32.5056C50.0114 31.7622 49.8405 30.5684 49.5784 29.994C49.3847 29.7011 49.2935 29.7574 48.8377 29.5998C48.5187 29.4984 48.2908 29.4083 47.9945 29.3069C47.4476 29.1155 46.7639 28.8564 46.1714 28.7438C46.2625 28.9015 46.3195 29.0591 46.3879 29.2281C46.9804 30.5008 48.4617 32.5957 49.3049 33.722C49.7379 34.2851 50.2507 34.6455 50.6039 35.1411Z" fill="#007CC2"/>
<path fill-rule="evenodd" clip-rule="evenodd" d="M54.6604 5.14802C54.9225 6.08284 55.0934 6.06031 54.9453 7.26544C57.0305 6.21799 56.9166 5.03539 60.8933 5.03539C59.2183 2.54629 56.6545 3.88657 54.6604 5.14802Z" fill="#EC3236"/>
<path fill-rule="evenodd" clip-rule="evenodd" d="M45.7156 19.8123C45.8865 19.1253 46.0688 15.7126 45.8295 15.1607C45.1459 15.8928 43.186 20.3191 43.1062 21.04C43.4822 21.2878 44.2571 21.8284 44.7015 21.9297C44.8724 21.6144 45.0319 21.2202 45.1914 20.8485C45.3396 20.4656 45.4307 20.1277 45.7156 19.8123Z" fill="#EC3236"/>
<path fill-rule="evenodd" clip-rule="evenodd" d="M49.51 16.9065C49.6239 16.2307 49.8518 15.5324 50 14.9467C50.0797 14.5863 50.1709 14.3385 50.2506 13.9669C50.3532 13.5163 50.2734 13.2573 50.6836 13.246L50.1253 13.0095C49.4872 12.9645 48.8491 13.3587 48.5756 13.8993C48.3705 14.2935 47.9261 16.0392 47.8691 16.5573L49.51 16.9065Z" fill="#ED454A"/>
<path fill-rule="evenodd" clip-rule="evenodd" d="M49.51 16.9065L51.0369 17.357C51.2306 16.5911 51.5155 15.7464 51.6408 15.0368C51.8003 14.1245 51.356 13.3361 50.6837 13.246C50.2735 13.2573 50.3532 13.5163 50.2507 13.9669C50.1709 14.3385 50.0797 14.5863 50 14.9467C49.8519 15.5324 49.624 16.2307 49.51 16.9065Z" fill="#EC3236"/>
<path fill-rule="evenodd" clip-rule="evenodd" d="M48.4389 20.4092L48.5415 20.6345C48.3706 20.8147 48.7238 20.7246 48.1541 20.871C48.8377 21.5017 49.886 20.5669 50.1025 20.0939C50.2849 19.6659 50.6609 18.2693 50.7179 17.7512L49.191 17.3457C49.191 18.0102 48.6212 19.6434 48.4389 20.4092Z" fill="#3096CD"/>
<path fill-rule="evenodd" clip-rule="evenodd" d="M48.1541 20.871C48.7238 20.7246 48.3706 20.8147 48.5415 20.6345L48.0629 20.5895C47.8692 20.3529 47.6641 20.2065 47.5387 19.9137C47.2311 19.1027 47.6527 19.1365 47.6527 19.1365C47.9262 19.8123 47.5957 20.0939 48.4389 20.4092C48.6212 19.6434 49.191 18.0102 49.191 17.3457L47.7439 16.9628C47.6185 17.6724 47.2767 18.472 47.1513 19.2041C47.0032 20.0939 47.4932 20.7584 48.1541 20.871Z" fill="#55A8D4"/>
<path fill-rule="evenodd" clip-rule="evenodd" d="M57.4978 42.7548C57.9764 42.4507 58.2954 42.0115 58.717 41.606C59.0703 41.2569 59.7425 40.7838 59.8793 40.2882C58.8424 39.7476 57.8396 39.7814 57.2585 40.9415C56.8369 41.7412 57.1787 42.1579 57.4978 42.7548Z" fill="#007CC2"/>
<path fill-rule="evenodd" clip-rule="evenodd" d="M57.7256 42.9801C59.355 44.0613 61.2693 42.5746 60.221 40.6261C59.7766 40.7388 57.9307 42.6985 57.7256 42.9801Z" fill="#007CC2"/>
<path fill-rule="evenodd" clip-rule="evenodd" d="M54.7744 37.7203C54.7744 38.2947 54.7744 38.7114 55.2986 39.2295C56.2101 40.1193 57.6117 39.6688 57.8396 38.8353C56.8369 38.6101 54.7744 36.7404 54.7744 37.7203Z" fill="#EC3236"/>
<path fill-rule="evenodd" clip-rule="evenodd" d="M55.1277 37.1572L57.9536 38.7227C59.1044 36.5602 55.5493 35.5353 55.1277 37.1572Z" fill="#EC3236"/>
<path fill-rule="evenodd" clip-rule="evenodd" d="M63.0583 43.0927C63.1381 43.4756 63.3204 43.7685 63.5027 44.0951C63.1153 44.1965 63.1495 44.1627 63.0583 44.5456C63.5027 44.7484 65.3601 43.8135 65.4057 43.4982C65.474 42.9913 64.9385 43.318 64.7448 43.4306C64.6422 43.0026 64.5169 42.9463 64.4143 42.5296C63.9357 42.5633 63.4116 42.9012 63.0583 43.0927Z" fill="#0063B4"/>
<path fill-rule="evenodd" clip-rule="evenodd" d="M59.993 36.1548C60.2095 35.8619 60.2437 35.907 60.6767 35.8169C59.7651 34.1274 60.2665 35.5015 59.6512 34.4879C59.4119 34.1274 58.9789 33.3616 58.8536 32.8998H58.5117C58.5345 33.4967 58.9561 34.15 59.2182 34.578C59.5372 35.1411 59.3549 34.8145 59.3549 35.3776C59.3549 35.7944 59.5486 35.8056 59.6512 36.2561C59.7993 36.1773 59.7765 36.1998 59.993 36.1548Z" fill="#0063B4"/>
<path fill-rule="evenodd" clip-rule="evenodd" d="M51.4472 10.633C51.2307 10.5542 51.2535 10.5429 50.98 10.4641C50.7293 10.3965 50.5698 10.3965 50.3305 10.3402C49.8633 10.205 49.624 10.0812 49.0999 10.0699C49.4417 10.374 50.9002 11.0047 51.4472 10.633Z" fill="#E4353D"/>
<path fill-rule="evenodd" clip-rule="evenodd" d="M48.5414 20.6345L48.4388 20.4092C47.5956 20.0939 47.9261 19.8123 47.6526 19.1365C47.6526 19.1365 47.231 19.1027 47.5386 19.9137C47.664 20.2065 47.8691 20.3529 48.0628 20.5895L48.5414 20.6345Z" fill="#EAF4F9"/>
<path fill-rule="evenodd" clip-rule="evenodd" d="M62.2266 41.9664C63.1267 41.7186 62.8647 41.6623 62.9786 41.4596C62.8077 41.4934 62.5912 41.5497 62.4659 41.6173C62.0784 41.8425 62.3405 41.5722 62.2266 41.9664Z" fill="#EAF4F9"/>
<path fill-rule="evenodd" clip-rule="evenodd" d="M60.7339 39.1169C61.6796 38.9142 61.4176 38.8466 61.4745 38.6326C61.3378 38.6664 61.2125 38.6664 61.0643 38.7565C60.6313 39.0043 60.9048 38.8241 60.7339 39.1169Z" fill="#F3F8FA"/>
<path fill-rule="evenodd" clip-rule="evenodd" d="M60.0273 37.6865C60.1299 37.664 60.3464 37.6189 60.4148 37.5964C60.9047 37.3824 60.6768 37.4613 60.8022 37.2247C60.4034 37.2811 60.1299 37.3261 60.0273 37.6865Z" fill="#EAF4F9"/>
<path fill-rule="evenodd" clip-rule="evenodd" d="M61.4631 40.536L62.2494 40.2545C62.181 40.1644 62.3519 39.9166 61.805 40.1644C61.4745 40.2995 61.5771 40.2657 61.4631 40.536Z" fill="#EAF4F9"/>
<path fill-rule="evenodd" clip-rule="evenodd" d="M61.1211 39.8265C61.5655 39.7476 61.6453 39.7138 61.8845 39.3422C61.7022 39.3872 61.4971 39.4323 61.349 39.5224C61.0299 39.7138 61.2236 39.5336 61.1211 39.8265Z" fill="#F3F8FA"/>
<path fill-rule="evenodd" clip-rule="evenodd" d="M61.8391 41.2456C62.0328 41.1893 62.2037 41.178 62.3861 41.0767C62.7279 40.8514 62.5114 41.0316 62.5798 40.7613C62.1696 40.8514 62.067 40.8852 61.8391 41.2456Z" fill="#F3F8FA"/>
<path fill-rule="evenodd" clip-rule="evenodd" d="M60.3577 38.2609C60.6653 38.4749 60.9958 38.2384 61.1667 37.9118L60.3577 38.2609Z" fill="#EAF4F9"/>
<path fill-rule="evenodd" clip-rule="evenodd" d="M3.08797 50.6839V52.4409H2.93984C2.89426 52.103 2.81449 51.8327 2.70055 51.63C2.5866 51.4385 2.41568 51.2808 2.19918 51.157C1.98268 51.0443 1.75479 50.9767 1.5155 50.9767C1.25342 50.9767 1.03692 51.0556 0.865998 51.2245C0.695078 51.3822 0.60392 51.5624 0.60392 51.7651C0.60392 51.9116 0.660893 52.058 0.774841 52.1819C0.934367 52.3733 1.299 52.6211 1.89152 52.9365C2.3701 53.1843 2.70055 53.387 2.87147 53.5222C3.05378 53.6573 3.19052 53.815 3.28168 54.0065C3.37284 54.1867 3.41841 54.3781 3.41841 54.5809C3.41841 54.9638 3.27028 55.3017 2.97402 55.572C2.66636 55.8536 2.27894 56 1.80036 56C1.65223 56 1.5155 55.9887 1.37876 55.9549C1.31039 55.9437 1.13947 55.8986 0.900182 55.8198C0.649499 55.741 0.489973 55.7072 0.432999 55.7072C0.364631 55.7072 0.319052 55.7184 0.273473 55.7635C0.239289 55.7973 0.2165 55.8761 0.19371 56H0.0569736V54.2542H0.19371C0.262078 54.6147 0.353236 54.8962 0.467183 55.0764C0.569736 55.2566 0.740656 55.4031 0.968551 55.527C1.19644 55.6396 1.44713 55.7072 1.7206 55.7072C2.03965 55.7072 2.29034 55.6171 2.47265 55.4594C2.65497 55.2904 2.74613 55.099 2.74613 54.8737C2.74613 54.7386 2.71194 54.6147 2.64357 54.4908C2.57521 54.3669 2.47265 54.243 2.32452 54.1304C2.22197 54.0515 1.9485 53.8938 1.5155 53.6573C1.0711 53.4095 0.763446 53.2181 0.569736 53.0716C0.38742 52.9365 0.239289 52.7675 0.148131 52.5986C0.0569736 52.4184 0 52.2269 0 52.0242C0 51.6525 0.148131 51.3372 0.432999 51.0781C0.706472 50.8191 1.0711 50.6839 1.5155 50.6839C1.78897 50.6839 2.07384 50.7515 2.3815 50.8754C2.51823 50.943 2.62078 50.9767 2.67776 50.9767C2.74613 50.9767 2.8031 50.9542 2.83728 50.9204C2.88286 50.8754 2.91705 50.7965 2.93984 50.6839H3.08797ZM7.1217 52.4409V54.5358C7.1217 54.9188 7.13309 55.1553 7.15588 55.2454C7.16727 55.3355 7.20146 55.3918 7.24704 55.4369C7.28122 55.4706 7.3382 55.4819 7.39517 55.4819C7.46354 55.4819 7.5547 55.4594 7.65725 55.4256L7.70283 55.5607L6.66591 55.9775H6.49499V55.2566C6.19872 55.572 5.97083 55.7747 5.8113 55.8536C5.66317 55.9437 5.49225 55.9775 5.32133 55.9775C5.12762 55.9775 4.9567 55.9212 4.80857 55.8085C4.67183 55.7072 4.56928 55.5607 4.51231 55.3805C4.45533 55.2116 4.43254 54.9638 4.43254 54.6485V53.1167C4.43254 52.9478 4.40975 52.8351 4.37557 52.7788C4.34139 52.7112 4.29581 52.6662 4.22744 52.6324C4.14768 52.5986 4.02233 52.5761 3.84002 52.5873V52.4409H5.05925V54.7498C5.05925 55.0652 5.11623 55.2792 5.23017 55.3805C5.34412 55.4819 5.48086 55.527 5.64038 55.527C5.74294 55.527 5.86828 55.4932 6.00501 55.4256C6.14175 55.358 6.31267 55.2341 6.49499 55.0427V53.0942C6.49499 52.9027 6.4608 52.7675 6.39243 52.7C6.31267 52.6211 6.16454 52.5873 5.93665 52.5873V52.4409H7.1217ZM10.4034 55.4819C10.2325 55.6621 10.0729 55.786 9.9134 55.8648C9.74248 55.9437 9.57156 55.9775 9.38924 55.9775C9.01322 55.9775 8.67138 55.8198 8.3979 55.5157C8.11304 55.2003 7.96491 54.7949 7.96491 54.2993C7.96491 53.815 8.12443 53.3645 8.44348 52.959C8.75114 52.5536 9.14996 52.3508 9.65132 52.3508C9.94759 52.3508 10.2097 52.4409 10.4034 52.6324V52.0017C10.4034 51.6075 10.392 51.3709 10.3806 51.2808C10.3578 51.1907 10.3236 51.1344 10.2894 51.1006C10.2438 51.0668 10.1983 51.0556 10.1299 51.0556C10.0729 51.0556 9.98177 51.0668 9.86782 51.1119L9.82224 50.9767L10.8592 50.5488H11.0301V54.5133C11.0301 54.9188 11.0415 55.1553 11.0643 55.2454C11.0871 55.3355 11.1098 55.3918 11.1554 55.4369C11.1896 55.4706 11.2466 55.4819 11.3036 55.4819C11.3719 55.4819 11.4631 55.4594 11.577 55.4256L11.6112 55.5607L10.5743 55.9775H10.4034V55.4819ZM10.4034 55.2229V53.4658C10.392 53.2969 10.3464 53.1392 10.2666 53.0041C10.1983 52.8576 10.0957 52.7563 9.97038 52.6774C9.84503 52.6099 9.71969 52.5761 9.60574 52.5761C9.37785 52.5761 9.18414 52.6774 9.00182 52.8689C8.77393 53.128 8.65998 53.5109 8.65998 54.0065C8.65998 54.5133 8.77393 54.8962 8.99043 55.1665C9.21832 55.4369 9.46901 55.5607 9.74248 55.5607C9.97038 55.5607 10.1869 55.4481 10.4034 55.2229ZM12.8532 50.5488V53.0604C13.1381 52.7563 13.3546 52.5648 13.5255 52.4747C13.6851 52.3846 13.856 52.3508 14.0155 52.3508C14.2092 52.3508 14.3801 52.3959 14.5283 52.5085C14.665 52.6099 14.7675 52.7788 14.8359 53.0153C14.8815 53.173 14.9157 53.4658 14.9157 53.8938V55.1102C14.9157 55.3242 14.9271 55.4706 14.9613 55.5495C14.984 55.6058 15.0296 55.6508 15.098 55.6846C15.155 55.7297 15.2575 55.741 15.4284 55.741V55.8761H13.7192V55.741H13.799C13.9699 55.741 14.0725 55.7184 14.1408 55.6734C14.1978 55.6171 14.2434 55.5495 14.2662 55.4594C14.2776 55.4143 14.289 55.3017 14.289 55.1102V53.8938C14.289 53.5109 14.2662 53.2631 14.2206 53.1505C14.1864 53.0379 14.1181 52.9478 14.0383 52.8914C13.9471 52.8239 13.8446 52.8013 13.7192 52.8013C13.6053 52.8013 13.4686 52.8351 13.3432 52.8914C13.2065 52.959 13.0469 53.0942 12.8532 53.2856V55.1102C12.8532 55.3355 12.8646 55.4819 12.8988 55.5382C12.9216 55.5945 12.9672 55.6508 13.0469 55.6846C13.1153 55.7184 13.2407 55.741 13.4116 55.741V55.8761H11.7024V55.741C11.8505 55.741 11.9758 55.7184 12.067 55.6734C12.1126 55.6508 12.1582 55.5945 12.1809 55.527C12.2151 55.4594 12.2265 55.3242 12.2265 55.1102V52.0017C12.2265 51.6075 12.2151 51.3709 12.2037 51.2808C12.1809 51.1907 12.1468 51.1344 12.1126 51.1006C12.0784 51.0668 12.0214 51.0556 11.9531 51.0556C11.9075 51.0556 11.8163 51.0668 11.7024 51.1119L11.6454 50.9767L12.6823 50.5488H12.8532ZM17.6732 55.3805C17.32 55.6508 17.0921 55.8085 17.0009 55.8536C16.8642 55.9212 16.716 55.9437 16.5679 55.9437C16.3286 55.9437 16.1349 55.8648 15.9754 55.7072C15.8159 55.5382 15.7361 55.3242 15.7361 55.0652C15.7361 54.8962 15.7817 54.7498 15.85 54.6259C15.964 54.457 16.1349 54.2993 16.397 54.1529C16.6477 53.9952 17.0807 53.815 17.6732 53.601V53.4658C17.6732 53.128 17.6162 52.8914 17.5137 52.7675C17.3997 52.6437 17.2402 52.5761 17.0351 52.5761C16.8756 52.5761 16.7502 52.6211 16.6477 52.7C16.5565 52.7901 16.5109 52.8802 16.5109 52.9928L16.5223 53.2068C16.5223 53.3307 16.4882 53.4208 16.4312 53.4771C16.3628 53.5447 16.2944 53.5672 16.1919 53.5672C16.1007 53.5672 16.021 53.5447 15.964 53.4771C15.907 53.4095 15.8728 53.3194 15.8728 53.2068C15.8728 52.9928 15.9868 52.7901 16.2033 52.6211C16.4312 52.4409 16.7388 52.3508 17.149 52.3508C17.4567 52.3508 17.7074 52.3959 17.9011 52.4972C18.0492 52.5761 18.1632 52.7 18.2315 52.8576C18.2771 52.9703 18.2999 53.1843 18.2999 53.5222V54.6822C18.2999 55.0089 18.3113 55.2116 18.3227 55.2792C18.3341 55.358 18.3569 55.4031 18.3797 55.4256C18.4139 55.4481 18.448 55.4706 18.4822 55.4706C18.5278 55.4706 18.562 55.4594 18.5848 55.4369C18.6418 55.4031 18.7443 55.313 18.8924 55.1665V55.3805C18.619 55.7522 18.3455 55.9437 18.0834 55.9437C17.9581 55.9437 17.8555 55.8986 17.7871 55.8198C17.7074 55.7297 17.6732 55.5833 17.6732 55.3805ZM17.6732 55.1328V53.8375C17.2858 53.9839 17.0465 54.0853 16.9325 54.1529C16.7274 54.2655 16.5907 54.3781 16.4995 54.4908C16.4084 54.6147 16.3742 54.7498 16.3742 54.885C16.3742 55.0652 16.4198 55.2116 16.5337 55.3355C16.6477 55.4481 16.773 55.5157 16.9098 55.5157C17.1035 55.5157 17.3541 55.3918 17.6732 55.1328ZM20.1686 53.0604C20.5789 52.5873 20.9663 52.3508 21.3309 52.3508C21.5132 52.3508 21.6841 52.3959 21.8209 52.486C21.9576 52.5761 22.0602 52.7338 22.1399 52.9478C22.1969 53.0942 22.2197 53.3307 22.2197 53.6348V55.1102C22.2197 55.3242 22.2425 55.4706 22.2767 55.5495C22.2995 55.6058 22.345 55.6508 22.4134 55.6846C22.4704 55.7297 22.5843 55.741 22.7552 55.741V55.8761H21.0346V55.741H21.1144C21.2739 55.741 21.3879 55.7184 21.4449 55.6734C21.5132 55.6171 21.5588 55.5495 21.5816 55.4594C21.593 55.4143 21.593 55.3017 21.593 55.1102V53.6911C21.593 53.3757 21.5588 53.1505 21.4676 53.0153C21.3879 52.8689 21.2511 52.8013 21.0574 52.8013C20.7612 52.8013 20.4649 52.959 20.1686 53.2856V55.1102C20.1686 55.3355 20.18 55.4819 20.2142 55.5382C20.2484 55.6058 20.294 55.6621 20.3624 55.6959C20.4193 55.7297 20.5447 55.741 20.7384 55.741V55.8761H19.0178V55.741H19.0861C19.2685 55.741 19.3824 55.6959 19.4508 55.6058C19.5077 55.527 19.5419 55.358 19.5419 55.1102V53.8375C19.5419 53.4208 19.5305 53.173 19.5077 53.0829C19.4964 52.9928 19.4622 52.9252 19.428 52.9027C19.3824 52.8689 19.3368 52.8464 19.2685 52.8464C19.2001 52.8464 19.1089 52.8689 19.0178 52.9027L18.9608 52.7675L20.0091 52.3508H20.1686V53.0604ZM24.9886 55.3805C24.6354 55.6508 24.4189 55.8085 24.3277 55.8536C24.191 55.9212 24.0428 55.9437 23.8833 55.9437C23.644 55.9437 23.4503 55.8648 23.2908 55.7072C23.1427 55.5382 23.0629 55.3242 23.0629 55.0652C23.0629 54.8962 23.0971 54.7498 23.1768 54.6259C23.2794 54.457 23.4617 54.2993 23.7124 54.1529C23.9745 53.9952 24.3961 53.815 24.9886 53.601V53.4658C24.9886 53.128 24.943 52.8914 24.8291 52.7675C24.7151 52.6437 24.5556 52.5761 24.3505 52.5761C24.191 52.5761 24.0656 52.6211 23.9745 52.7C23.8719 52.7901 23.8263 52.8802 23.8263 52.9928L23.8377 53.2068C23.8377 53.3307 23.8036 53.4208 23.7466 53.4771C23.6896 53.5447 23.6098 53.5672 23.5187 53.5672C23.4161 53.5672 23.3478 53.5447 23.2794 53.4771C23.2224 53.4095 23.1882 53.3194 23.1882 53.2068C23.1882 52.9928 23.3022 52.7901 23.5301 52.6211C23.7466 52.4409 24.0656 52.3508 24.4645 52.3508C24.7721 52.3508 25.0228 52.3959 25.2279 52.4972C25.376 52.5761 25.4786 52.7 25.5469 52.8576C25.5925 52.9703 25.6267 53.1843 25.6267 53.5222V54.6822C25.6267 55.0089 25.6267 55.2116 25.6381 55.2792C25.6495 55.358 25.6723 55.4031 25.7065 55.4256C25.7293 55.4481 25.7634 55.4706 25.809 55.4706C25.8432 55.4706 25.8774 55.4594 25.9116 55.4369C25.9686 55.4031 26.0711 55.313 26.2192 55.1665V55.3805C25.9344 55.7522 25.6609 55.9437 25.3988 55.9437C25.2849 55.9437 25.1823 55.8986 25.1026 55.8198C25.0342 55.7297 25 55.5833 24.9886 55.3805ZM24.9886 55.1328V53.8375C24.6126 53.9839 24.3619 54.0853 24.248 54.1529C24.0542 54.2655 23.9061 54.3781 23.815 54.4908C23.7352 54.6147 23.6896 54.7498 23.6896 54.885C23.6896 55.0652 23.7466 55.2116 23.8491 55.3355C23.9631 55.4481 24.0884 55.5157 24.2366 55.5157C24.4189 55.5157 24.681 55.3918 24.9886 55.1328ZM27.4841 53.0604C27.8943 52.5873 28.2817 52.3508 28.6463 52.3508C28.84 52.3508 28.9995 52.3959 29.1363 52.486C29.273 52.5761 29.3756 52.7338 29.4667 52.9478C29.5123 53.0942 29.5465 53.3307 29.5465 53.6348V55.1102C29.5465 55.3242 29.5579 55.4706 29.5921 55.5495C29.6263 55.6058 29.6718 55.6508 29.7288 55.6846C29.7972 55.7297 29.9111 55.741 30.0707 55.741V55.8761H28.3614V55.741H28.4298C28.5893 55.741 28.7033 55.7184 28.7717 55.6734C28.8286 55.6171 28.8742 55.5495 28.897 55.4594C28.9084 55.4143 28.9198 55.3017 28.9198 55.1102V53.6911C28.9198 53.3757 28.8742 53.1505 28.7944 53.0153C28.7147 52.8689 28.5779 52.8013 28.3842 52.8013C28.088 52.8013 27.7803 52.959 27.4841 53.2856V55.1102C27.4841 55.3355 27.5068 55.4819 27.5296 55.5382C27.5638 55.6058 27.6208 55.6621 27.6778 55.6959C27.7347 55.7297 27.8601 55.741 28.0538 55.741V55.8761H26.3332V55.741H26.4129C26.5839 55.741 26.7092 55.6959 26.7662 55.6058C26.8346 55.527 26.8573 55.358 26.8573 55.1102V53.8375C26.8573 53.4208 26.8573 53.173 26.8346 53.0829C26.8118 52.9928 26.789 52.9252 26.7434 52.9027C26.7092 52.8689 26.6522 52.8464 26.5839 52.8464C26.5155 52.8464 26.4357 52.8689 26.3332 52.9027L26.2762 52.7675L27.3245 52.3508H27.4841V53.0604ZM32.8054 55.4819C32.6345 55.6621 32.4635 55.786 32.304 55.8648C32.1445 55.9437 31.9736 55.9775 31.7799 55.9775C31.4038 55.9775 31.0734 55.8198 30.7885 55.5157C30.5036 55.2003 30.3669 54.7949 30.3669 54.2993C30.3669 53.815 30.5264 53.3645 30.8341 52.959C31.1531 52.5536 31.552 52.3508 32.0419 52.3508C32.3496 52.3508 32.6003 52.4409 32.8054 52.6324V52.0017C32.8054 51.6075 32.794 51.3709 32.7712 51.2808C32.7484 51.1907 32.7256 51.1344 32.68 51.1006C32.6459 51.0668 32.5889 51.0556 32.5319 51.0556C32.4635 51.0556 32.3838 51.0668 32.2698 51.1119L32.2243 50.9767L33.2612 50.5488H33.4321V54.5133C33.4321 54.9188 33.4435 55.1553 33.4549 55.2454C33.4777 55.3355 33.5119 55.3918 33.546 55.4369C33.5916 55.4706 33.6372 55.4819 33.6942 55.4819C33.7625 55.4819 33.8537 55.4594 33.9676 55.4256L34.0132 55.5607L32.9763 55.9775H32.8054V55.4819ZM32.8054 55.2229V53.4658C32.7826 53.2969 32.737 53.1392 32.6686 53.0041C32.5889 52.8576 32.4863 52.7563 32.361 52.6774C32.2356 52.6099 32.1217 52.5761 31.9964 52.5761C31.7799 52.5761 31.5748 52.6774 31.4038 52.8689C31.1759 53.128 31.062 53.5109 31.062 54.0065C31.062 54.5133 31.1645 54.8962 31.3924 55.1665C31.6089 55.4369 31.8596 55.5607 32.1331 55.5607C32.361 55.5607 32.5889 55.4481 32.8054 55.2229ZM37.5228 53.4996V54.9863C37.5228 55.3017 37.557 55.5044 37.6253 55.572C37.7165 55.6846 37.8646 55.741 38.0583 55.741H38.2521V55.8761H36.0529V55.741H36.2466C36.4631 55.741 36.6226 55.6734 36.7138 55.527C36.7593 55.4594 36.7935 55.2679 36.7935 54.9863V51.6976C36.7935 51.3709 36.7593 51.1795 36.691 51.1006C36.5884 50.988 36.4403 50.9317 36.2466 50.9317H36.0529V50.7965H37.933C38.4002 50.7965 38.7534 50.8416 39.0269 50.943C39.289 51.0331 39.5169 51.1907 39.6992 51.416C39.8815 51.63 39.9727 51.9003 39.9727 52.2044C39.9727 52.6211 39.8245 52.959 39.5511 53.2181C39.2776 53.4771 38.8902 53.601 38.3774 53.601C38.2521 53.601 38.1267 53.5897 37.9786 53.5785C37.8305 53.5559 37.6823 53.5334 37.5228 53.4996ZM37.5228 53.2856C37.6481 53.3082 37.7735 53.3307 37.876 53.342C37.9786 53.3532 38.0697 53.3532 38.1381 53.3532C38.4002 53.3532 38.6281 53.2519 38.8104 53.0604C39.0041 52.8576 39.0953 52.5986 39.0953 52.2832C39.0953 52.058 39.0497 51.8553 38.9585 51.6638C38.8788 51.4836 38.742 51.3372 38.5825 51.2471C38.4116 51.1457 38.2179 51.1006 38.0128 51.1006C37.8874 51.1006 37.7165 51.1232 37.5228 51.1795V53.2856ZM41.4995 50.5488V53.0604C41.7844 52.7563 42.0123 52.5648 42.1718 52.4747C42.3314 52.3846 42.5023 52.3508 42.6618 52.3508C42.8669 52.3508 43.0264 52.3959 43.1746 52.5085C43.3113 52.6099 43.4139 52.7788 43.4936 53.0153C43.5392 53.173 43.562 53.4658 43.562 53.8938V55.1102C43.562 55.3242 43.5734 55.4706 43.619 55.5495C43.6418 55.6058 43.6759 55.6508 43.7443 55.6846C43.8013 55.7297 43.9152 55.741 44.0748 55.741V55.8761H42.3769V55.741H42.4567C42.6162 55.741 42.7302 55.7184 42.7872 55.6734C42.8555 55.6171 42.9011 55.5495 42.9239 55.4594C42.9239 55.4143 42.9353 55.3017 42.9353 55.1102V53.8938C42.9353 53.5109 42.9125 53.2631 42.8783 53.1505C42.8327 53.0379 42.7758 52.9478 42.6846 52.8914C42.6048 52.8239 42.4909 52.8013 42.3769 52.8013C42.2516 52.8013 42.1263 52.8351 41.9895 52.8914C41.8528 52.959 41.6933 53.0942 41.4995 53.2856V55.1102C41.4995 55.3355 41.5223 55.4819 41.5451 55.5382C41.5679 55.5945 41.6249 55.6508 41.6933 55.6846C41.7616 55.7184 41.887 55.741 42.0579 55.741V55.8761H40.3487V55.741C40.5082 55.741 40.6222 55.7184 40.7133 55.6734C40.7589 55.6508 40.8045 55.5945 40.8273 55.527C40.8614 55.4594 40.8728 55.3242 40.8728 55.1102V52.0017C40.8728 51.6075 40.8728 51.3709 40.85 51.2808C40.8273 51.1907 40.8045 51.1344 40.7589 51.1006C40.7247 51.0668 40.6677 51.0556 40.6108 51.0556C40.5538 51.0556 40.4626 51.0668 40.3487 51.1119L40.2917 50.9767L41.3286 50.5488H41.4995ZM46.3195 55.3805C45.9663 55.6508 45.7384 55.8085 45.6472 55.8536C45.5105 55.9212 45.3738 55.9437 45.2142 55.9437C44.9749 55.9437 44.7812 55.8648 44.6217 55.7072C44.4736 55.5382 44.3938 55.3242 44.3938 55.0652C44.3938 54.8962 44.428 54.7498 44.5078 54.6259C44.6103 54.457 44.7926 54.2993 45.0433 54.1529C45.3054 53.9952 45.727 53.815 46.3195 53.601V53.4658C46.3195 53.128 46.2625 52.8914 46.16 52.7675C46.046 52.6437 45.8865 52.5761 45.6814 52.5761C45.5219 52.5761 45.3965 52.6211 45.3054 52.7C45.2028 52.7901 45.1573 52.8802 45.1573 52.9928L45.1686 53.2068C45.1686 53.3307 45.1345 53.4208 45.0775 53.4771C45.0205 53.5447 44.9408 53.5672 44.8382 53.5672C44.747 53.5672 44.6673 53.5447 44.6103 53.4771C44.5533 53.4095 44.5191 53.3194 44.5191 53.2068C44.5191 52.9928 44.6331 52.7901 44.861 52.6211C45.0775 52.4409 45.3965 52.3508 45.7954 52.3508C46.103 52.3508 46.3537 52.3959 46.5474 52.4972C46.6955 52.5761 46.8095 52.7 46.8779 52.8576C46.9234 52.9703 46.9462 53.1843 46.9462 53.5222V54.6822C46.9462 55.0089 46.9576 55.2116 46.969 55.2792C46.9804 55.358 47.0032 55.4031 47.026 55.4256C47.0602 55.4481 47.0944 55.4706 47.1285 55.4706C47.1741 55.4706 47.2083 55.4594 47.2425 55.4369C47.2881 55.4031 47.3906 55.313 47.5501 55.1665V55.3805C47.2653 55.7522 46.9918 55.9437 46.7297 55.9437C46.6044 55.9437 46.5132 55.8986 46.4335 55.8198C46.3651 55.7297 46.3195 55.5833 46.3195 55.3805ZM46.3195 55.1328V53.8375C45.9321 53.9839 45.6928 54.0853 45.5789 54.1529C45.3738 54.2655 45.237 54.3781 45.1459 54.4908C45.0661 54.6147 45.0205 54.7498 45.0205 54.885C45.0205 55.0652 45.0775 55.2116 45.18 55.3355C45.294 55.4481 45.4193 55.5157 45.5561 55.5157C45.7498 55.5157 46.0005 55.3918 46.3195 55.1328ZM48.8264 52.3508V53.1167C49.1112 52.5986 49.4075 52.3508 49.7151 52.3508C49.8519 52.3508 49.9658 52.3846 50.057 52.4747C50.1481 52.5536 50.1937 52.6549 50.1937 52.7675C50.1937 52.8576 50.1595 52.9478 50.0912 53.0153C50.0228 53.0829 49.9544 53.1167 49.8633 53.1167C49.7721 53.1167 49.6696 53.0716 49.567 52.9815C49.4531 52.8914 49.3733 52.8464 49.3277 52.8464C49.2821 52.8464 49.2252 52.8802 49.1796 52.9252C49.0656 53.0266 48.9403 53.1955 48.8264 53.4321V55.0764C48.8264 55.2679 48.8491 55.4143 48.8947 55.5044C48.9289 55.572 48.9859 55.6283 49.0656 55.6734C49.1568 55.7184 49.2707 55.741 49.4303 55.741V55.8761H47.6527V55.741C47.835 55.741 47.9604 55.7184 48.0515 55.6621C48.1085 55.6171 48.1541 55.5607 48.1768 55.4706C48.1882 55.4256 48.1996 55.3017 48.1996 55.1102V53.7812C48.1996 53.3757 48.1882 53.1392 48.1768 53.0716C48.1541 52.9928 48.1313 52.9365 48.0857 52.9027C48.0401 52.8689 47.9831 52.8464 47.9148 52.8464C47.835 52.8464 47.7552 52.8689 47.6527 52.9027L47.6185 52.7675L48.6668 52.3508H48.8264ZM51.4243 53.0829C51.675 52.8239 51.8232 52.6887 51.8687 52.6437C51.9827 52.5536 52.0966 52.4747 52.2334 52.4297C52.3587 52.3733 52.4954 52.3508 52.6208 52.3508C52.8373 52.3508 53.0196 52.4071 53.1791 52.531C53.3387 52.6549 53.4412 52.8351 53.4868 53.0829C53.7489 52.7788 53.9768 52.5761 54.1477 52.486C54.33 52.3959 54.5123 52.3508 54.706 52.3508C54.8883 52.3508 55.0479 52.3959 55.196 52.486C55.3441 52.5761 55.4581 52.7338 55.5378 52.9478C55.5948 53.0942 55.6176 53.3194 55.6176 53.6235V55.1102C55.6176 55.3242 55.6404 55.4706 55.6632 55.5495C55.6974 55.5945 55.7429 55.6508 55.7999 55.6846C55.8683 55.7184 55.9822 55.741 56.1304 55.741V55.8761H54.4325V55.741H54.5009C54.649 55.741 54.7744 55.7184 54.8542 55.6508C54.9111 55.6171 54.9567 55.5495 54.9795 55.4706C54.9909 55.4256 54.9909 55.3017 54.9909 55.1102V53.6348C54.9909 53.3532 54.9567 53.1505 54.8883 53.0379C54.7858 52.8802 54.6377 52.8013 54.4098 52.8013C54.2844 52.8013 54.1477 52.8351 54.0109 52.9027C53.8742 52.959 53.7147 53.0829 53.521 53.2631L53.5096 53.3082L53.521 53.4658V55.1102C53.521 55.3355 53.5438 55.4819 53.5666 55.5382C53.5893 55.5945 53.6349 55.6508 53.7147 55.6846C53.7831 55.7184 53.9084 55.741 54.0793 55.741V55.8761H52.3359V55.741C52.5296 55.741 52.655 55.7184 52.7347 55.6734C52.8031 55.6283 52.8487 55.5607 52.8829 55.4706C52.8943 55.4369 52.8943 55.313 52.8943 55.1102V53.6348C52.8943 53.3532 52.8601 53.1505 52.7689 53.0266C52.6664 52.8689 52.5068 52.7788 52.3131 52.7788C52.1764 52.7788 52.0397 52.8239 51.9029 52.8914C51.6978 53.0041 51.5383 53.128 51.4243 53.2631V55.1102C51.4243 55.3242 51.4357 55.4706 51.4699 55.5382C51.5041 55.6058 51.5497 55.6621 51.6067 55.6959C51.675 55.7297 51.8004 55.741 51.9827 55.741V55.8761H50.2735V55.741C50.4216 55.741 50.5356 55.7297 50.6039 55.6959C50.6609 55.6621 50.7179 55.6058 50.7407 55.527C50.7748 55.4594 50.7976 55.313 50.7976 55.1102V53.7925C50.7976 53.4208 50.7862 53.173 50.7635 53.0716C50.7407 52.9815 50.7179 52.9252 50.6723 52.8914C50.6381 52.8689 50.5925 52.8464 50.5242 52.8464C50.4558 52.8464 50.3646 52.8689 50.2735 52.9027L50.2165 52.7675L51.2648 52.3508H51.4243V53.0829ZM58.3751 55.3805C58.0219 55.6508 57.8054 55.8085 57.7028 55.8536C57.5775 55.9212 57.4294 55.9437 57.2698 55.9437C57.0305 55.9437 56.8368 55.8648 56.6773 55.7072C56.5292 55.5382 56.4494 55.3242 56.4494 55.0652C56.4494 54.8962 56.4836 54.7498 56.5634 54.6259C56.6659 54.457 56.8482 54.2993 57.0989 54.1529C57.361 53.9952 57.7826 53.815 58.3751 53.601V53.4658C58.3751 53.128 58.3295 52.8914 58.2156 52.7675C58.1016 52.6437 57.9421 52.5761 57.737 52.5761C57.5775 52.5761 57.4521 52.6211 57.361 52.7C57.2584 52.7901 57.2129 52.8802 57.2129 52.9928L57.2243 53.2068C57.2243 53.3307 57.1901 53.4208 57.1331 53.4771C57.0761 53.5447 56.9964 53.5672 56.9052 53.5672C56.8027 53.5672 56.7343 53.5447 56.6659 53.4771C56.6089 53.4095 56.5748 53.3194 56.5748 53.2068C56.5748 52.9928 56.6887 52.7901 56.9166 52.6211C57.1331 52.4409 57.4521 52.3508 57.851 52.3508C58.1586 52.3508 58.4093 52.3959 58.6144 52.4972C58.7625 52.5761 58.8651 52.7 58.9335 52.8576C58.979 52.9703 59.0132 53.1843 59.0132 53.5222V54.6822C59.0132 55.0089 59.0132 55.2116 59.0246 55.2792C59.036 55.358 59.0588 55.4031 59.093 55.4256C59.1158 55.4481 59.15 55.4706 59.1841 55.4706C59.2297 55.4706 59.2639 55.4594 59.2981 55.4369C59.3551 55.4031 59.4576 55.313 59.6057 55.1665V55.3805C59.3209 55.7522 59.0474 55.9437 58.7853 55.9437C58.6714 55.9437 58.5688 55.8986 58.4891 55.8198C58.4207 55.7297 58.3865 55.5833 58.3751 55.3805ZM58.3751 55.1328V53.8375C57.9991 53.9839 57.7484 54.0853 57.6345 54.1529C57.4408 54.2655 57.2926 54.3781 57.2015 54.4908C57.1217 54.6147 57.0761 54.7498 57.0761 54.885C57.0761 55.0652 57.1331 55.2116 57.2356 55.3355C57.3496 55.4481 57.4749 55.5157 57.6231 55.5157C57.8054 55.5157 58.0675 55.3918 58.3751 55.1328ZM62.8191 54.5809C62.7165 55.0314 62.5342 55.3805 62.2607 55.6171C61.9872 55.8536 61.691 55.9775 61.3605 55.9775C60.9617 55.9775 60.6199 55.8198 60.335 55.4932C60.0387 55.1665 59.8906 54.716 59.8906 54.1641C59.8906 53.6235 60.0501 53.1843 60.3806 52.8464C60.6996 52.5198 61.0871 52.3508 61.5429 52.3508C61.8847 52.3508 62.1696 52.4409 62.3861 52.6099C62.6026 52.7901 62.7165 52.9815 62.7165 53.173C62.7165 53.2631 62.6823 53.342 62.6253 53.3983C62.557 53.4546 62.4772 53.4884 62.3633 53.4884C62.2151 53.4884 62.1012 53.4433 62.0328 53.342C61.9872 53.2969 61.9531 53.1955 61.9417 53.0491C61.9303 52.8914 61.8733 52.7788 61.7821 52.7C61.7024 52.6324 61.577 52.5873 61.4175 52.5873C61.1668 52.5873 60.9617 52.6887 60.8136 52.8689C60.6085 53.1167 60.5059 53.4321 60.5059 53.8375C60.5059 54.2542 60.6085 54.6147 60.8136 54.93C61.0073 55.2454 61.2922 55.3918 61.634 55.3918C61.8847 55.3918 62.1012 55.313 62.2949 55.1553C62.443 55.0314 62.5684 54.8287 62.7051 54.5246L62.8191 54.5809ZM64.1978 50.5488C64.3004 50.5488 64.3915 50.5938 64.4599 50.6614C64.5397 50.7402 64.5738 50.8303 64.5738 50.9317C64.5738 51.0331 64.5397 51.1232 64.4599 51.202C64.3915 51.2696 64.3004 51.3146 64.1978 51.3146C64.0839 51.3146 63.9927 51.2696 63.9243 51.202C63.8446 51.1232 63.8104 51.0331 63.8104 50.9317C63.8104 50.8303 63.8446 50.7402 63.913 50.6614C63.9927 50.5938 64.0839 50.5488 64.1978 50.5488ZM64.5055 52.3508V55.1102C64.5055 55.3242 64.5169 55.4594 64.5511 55.527C64.5852 55.6058 64.6308 55.6508 64.6878 55.6846C64.7562 55.7297 64.8701 55.741 65.0296 55.741V55.8761H63.3432V55.741C63.5141 55.741 63.6281 55.7297 63.6851 55.6959C63.742 55.6621 63.7876 55.6058 63.8218 55.5382C63.856 55.4594 63.8788 55.313 63.8788 55.1102V53.7812C63.8788 53.4095 63.8674 53.173 63.8446 53.0604C63.8218 52.9815 63.799 52.9252 63.7534 52.8914C63.7192 52.8689 63.6737 52.8464 63.6053 52.8464C63.5369 52.8464 63.4458 52.8689 63.3432 52.9027L63.2976 52.7675L64.3346 52.3508H64.5055ZM66.0438 53.7362C66.0324 54.243 66.1577 54.6485 66.4084 54.93C66.6705 55.2229 66.9667 55.3693 67.3086 55.3693C67.5251 55.3693 67.7302 55.3017 67.9011 55.1778C68.0606 55.0652 68.2088 54.8512 68.3227 54.5471L68.4367 54.6259C68.3797 54.9638 68.2315 55.2792 67.9695 55.5607C67.7188 55.8423 67.3997 55.9775 67.0123 55.9775C66.6021 55.9775 66.2489 55.8198 65.9526 55.5044C65.6563 55.1778 65.5082 54.7498 65.5082 54.2092C65.5082 53.6235 65.6563 53.1617 65.964 52.8351C66.2603 52.5085 66.6477 52.3508 67.1035 52.3508C67.4909 52.3508 67.8099 52.4747 68.0606 52.7225C68.3113 52.9815 68.4367 53.3194 68.4367 53.7362H66.0438ZM66.0438 53.5222H67.639C67.6276 53.3082 67.6048 53.1505 67.5593 53.0604C67.5023 52.9252 67.4111 52.8126 67.2858 52.7338C67.1604 52.6549 67.0237 52.6099 66.887 52.6099C66.6819 52.6099 66.4882 52.7 66.3286 52.8576C66.1577 53.0153 66.0666 53.2406 66.0438 53.5222ZM71.1372 52.3508V53.5109H71.0119C70.9207 53.1505 70.7954 52.9027 70.6472 52.7675C70.4991 52.6324 70.3054 52.5648 70.0775 52.5648C69.8952 52.5648 69.7584 52.6099 69.6445 52.7112C69.5419 52.8013 69.485 52.9027 69.485 53.0153C69.485 53.1505 69.5305 53.2744 69.6103 53.3757C69.6901 53.4771 69.8496 53.5785 70.0775 53.7024L70.6358 53.9614C71.1486 54.2092 71.3993 54.5358 71.3993 54.9413C71.3993 55.2566 71.2853 55.5044 71.046 55.6959C70.8068 55.8874 70.5447 55.9775 70.2484 55.9775C70.0319 55.9775 69.7926 55.9437 69.5191 55.8648C69.4394 55.8423 69.371 55.8311 69.314 55.8311C69.2571 55.8311 69.2115 55.8648 69.1773 55.9212H69.052V54.7048H69.1773C69.2457 55.0539 69.3824 55.313 69.5875 55.4932C69.7812 55.6734 70.0091 55.7522 70.2598 55.7522C70.4307 55.7522 70.5675 55.7072 70.6814 55.6058C70.7954 55.5044 70.8409 55.3805 70.8409 55.2454C70.8409 55.0652 70.784 54.93 70.6586 54.8061C70.5333 54.6935 70.294 54.5471 69.9294 54.3669C69.5647 54.1867 69.3254 54.029 69.2115 53.8826C69.0975 53.7362 69.0406 53.5559 69.0406 53.342C69.0406 53.0604 69.1317 52.8239 69.3368 52.6324C69.5305 52.4409 69.7812 52.3508 70.0889 52.3508C70.2256 52.3508 70.3851 52.3733 70.5903 52.4297C70.7156 52.4747 70.7954 52.486 70.8409 52.486C70.8865 52.486 70.9093 52.486 70.9321 52.4634C70.9549 52.4522 70.9891 52.4071 71.0119 52.3508H71.1372Z" fill="#007CC2"/>
<path fill-rule="evenodd" clip-rule="evenodd" d="M75.205 53.4996V54.9863C75.205 55.3017 75.2392 55.5044 75.3076 55.572C75.4101 55.6846 75.5469 55.7409 75.7406 55.7409H75.9457V55.8761H73.7351V55.7409H73.9288C74.1453 55.7409 74.3048 55.6734 74.396 55.527C74.453 55.4594 74.4758 55.2679 74.4758 54.9863V51.6976C74.4758 51.3709 74.4416 51.1795 74.3732 51.1006C74.2707 50.988 74.1339 50.9317 73.9288 50.9317H73.7351V50.7965H75.6266C76.0824 50.7965 76.447 50.8416 76.7091 50.943C76.9826 51.0331 77.1991 51.1907 77.3814 51.416C77.5637 51.63 77.6549 51.9003 77.6549 52.2044C77.6549 52.6211 77.5182 52.959 77.2447 53.2181C76.9598 53.4771 76.5724 53.601 76.071 53.601C75.9457 53.601 75.8089 53.5897 75.6722 53.5785C75.5241 53.5559 75.3646 53.5334 75.205 53.4996ZM75.205 53.2856C75.3418 53.3082 75.4557 53.3307 75.5583 53.342C75.6608 53.3532 75.752 53.3532 75.8203 53.3532C76.0824 53.3532 76.3103 53.2518 76.504 53.0604C76.6977 52.8576 76.7889 52.5986 76.7889 52.2832C76.7889 52.058 76.7433 51.8552 76.6522 51.6638C76.561 51.4836 76.4357 51.3372 76.2647 51.2471C76.1052 51.1457 75.9115 51.1006 75.7064 51.1006C75.5697 51.1006 75.4101 51.1232 75.205 51.1795V53.2856ZM77.9967 52.4409H79.6262V52.5873H79.5122C79.4211 52.5873 79.3413 52.6099 79.2957 52.6549C79.2388 52.7 79.216 52.7675 79.216 52.8464C79.216 52.9365 79.2388 53.0379 79.2957 53.1505L80.1048 55.0539L80.9138 53.0829C80.9708 52.9477 81.0049 52.8351 81.0049 52.7675C81.0049 52.7338 80.9935 52.7 80.9708 52.6774C80.948 52.6437 80.9138 52.6211 80.8682 52.5986C80.8226 52.5873 80.7315 52.5873 80.6061 52.5873V52.4409H81.7342V52.5873C81.5975 52.5986 81.5063 52.6211 81.4607 52.6662C81.3696 52.7338 81.2898 52.8689 81.2214 53.0379L80.0022 55.9775H79.8427L78.6006 53.0942C78.5437 52.9477 78.4981 52.8576 78.4411 52.8013C78.3955 52.7338 78.3272 52.6887 78.2474 52.6437C78.2018 52.6211 78.1221 52.5986 77.9967 52.5873V52.4409ZM83.0674 51.3146V52.4409H83.8764V52.7L83.0674 52.7112V54.93C83.0674 55.1553 83.1016 55.3017 83.1585 55.3805C83.2269 55.4594 83.3067 55.4932 83.4092 55.4932C83.489 55.4932 83.5687 55.4706 83.6485 55.4143C83.7283 55.3693 83.7852 55.2904 83.8308 55.1891H83.979C83.8878 55.4368 83.7625 55.6171 83.6029 55.7522C83.4434 55.8761 83.2725 55.9324 83.1016 55.9324C82.9876 55.9324 82.8737 55.8986 82.7597 55.8423C82.6458 55.7747 82.566 55.6846 82.5204 55.5607C82.4635 55.4481 82.4407 55.2566 82.4407 55.0089V52.7H81.8823V52.5761C82.0191 52.5198 82.1672 52.4297 82.3153 52.3058C82.4635 52.1706 82.5888 52.0242 82.7027 51.844C82.7597 51.7426 82.8395 51.5737 82.942 51.3146H83.0674ZM84.9361 55.1553C85.0501 55.1553 85.1526 55.1891 85.2324 55.2679C85.3121 55.358 85.3463 55.4481 85.3463 55.5607C85.3463 55.6846 85.3121 55.7747 85.2324 55.8536C85.1412 55.9437 85.0501 55.9775 84.9361 55.9775C84.8108 55.9775 84.7196 55.9437 84.6398 55.8536C84.5487 55.7747 84.5145 55.6846 84.5145 55.5607C84.5145 55.4481 84.5487 55.3467 84.6398 55.2679C84.7196 55.1891 84.8108 55.1553 84.9361 55.1553ZM92.2971 54.4795L92.411 54.502L91.978 55.8761H87.9899V55.7409H88.1836C88.4001 55.7409 88.5596 55.6734 88.6508 55.5382C88.7078 55.4594 88.7305 55.2679 88.7305 54.9863V51.6976C88.7305 51.3822 88.6964 51.1795 88.628 51.1006C88.5254 50.988 88.3773 50.9317 88.1836 50.9317H87.9899V50.7965H90.3258V50.9317C90.0523 50.9317 89.8586 50.9542 89.7447 51.0105C89.6421 51.0556 89.5624 51.1232 89.5168 51.202C89.4826 51.2808 89.4598 51.4723 89.4598 51.7764V54.9751C89.4598 55.1891 89.4826 55.3242 89.5168 55.4031C89.551 55.4594 89.5965 55.4932 89.6649 55.5157C89.7219 55.5495 89.927 55.5607 90.2574 55.5607H90.6335C91.0209 55.5607 91.3058 55.527 91.4653 55.4706C91.6248 55.4143 91.7615 55.313 91.8983 55.1665C92.0236 55.0201 92.1604 54.7949 92.2971 54.4795ZM93.8354 51.3146V52.4409H94.6444V52.7L93.8354 52.7112V54.93C93.8354 55.1553 93.8696 55.3017 93.9265 55.3805C93.9949 55.4594 94.0747 55.4932 94.1772 55.4932C94.257 55.4932 94.3367 55.4706 94.4165 55.4143C94.4963 55.3693 94.5646 55.2904 94.5988 55.1891H94.747C94.6558 55.4368 94.5305 55.6171 94.3709 55.7522C94.2114 55.8761 94.0405 55.9324 93.8696 55.9324C93.7556 55.9324 93.6417 55.8986 93.5277 55.8423C93.4252 55.7747 93.334 55.6846 93.2884 55.5607C93.2315 55.4481 93.2087 55.2566 93.2087 55.0089V52.7H92.6503V52.5761C92.7985 52.5198 92.9352 52.4297 93.0833 52.3058C93.2315 52.1706 93.3568 52.0242 93.4708 51.844C93.5277 51.7426 93.6075 51.5737 93.7214 51.3146H93.8354ZM97.4247 55.4819C97.2538 55.6621 97.0943 55.786 96.9233 55.8648C96.7638 55.9437 96.5929 55.9775 96.3992 55.9775C96.0232 55.9775 95.6927 55.8198 95.4079 55.5157C95.1344 55.2003 94.9862 54.7949 94.9862 54.2993C94.9862 53.815 95.1458 53.3645 95.4534 52.959C95.7725 52.5535 96.1713 52.3508 96.6613 52.3508C96.9689 52.3508 97.2196 52.4409 97.4247 52.6324V52.0017C97.4247 51.6075 97.4133 51.3709 97.3905 51.2808C97.3791 51.1907 97.345 51.1344 97.3108 51.1006C97.2652 51.0668 97.2196 51.0556 97.1512 51.0556C97.0829 51.0556 97.0031 51.0668 96.8892 51.1119L96.8436 50.9767L97.8805 50.5488H98.0514V54.5133C98.0514 54.9188 98.0628 55.1553 98.0856 55.2454C98.097 55.3355 98.1312 55.3918 98.1768 55.4368C98.211 55.4706 98.2679 55.4819 98.3135 55.4819C98.3819 55.4819 98.473 55.4594 98.587 55.4256L98.6326 55.5607L97.5956 55.9775H97.4247V55.4819ZM97.4247 55.2229V53.4658C97.4133 53.2969 97.3677 53.1392 97.288 53.0041C97.2082 52.8576 97.1057 52.7563 96.9803 52.6774C96.855 52.6099 96.741 52.5761 96.6157 52.5761C96.3992 52.5761 96.1941 52.6774 96.0232 52.8689C95.7953 53.128 95.6813 53.5109 95.6813 54.0065C95.6813 54.5133 95.7953 54.8962 96.0118 55.1665C96.2397 55.4368 96.479 55.5607 96.7524 55.5607C96.9917 55.5607 97.2082 55.4481 97.4247 55.2229ZM99.5783 55.1553C99.6923 55.1553 99.7948 55.1891 99.8746 55.2679C99.9543 55.358 99.9999 55.4481 99.9999 55.5607C99.9999 55.6846 99.9543 55.7747 99.8746 55.8536C99.7948 55.9437 99.6923 55.9775 99.5783 55.9775C99.4644 55.9775 99.3618 55.9437 99.2821 55.8536C99.2023 55.7747 99.1567 55.6846 99.1567 55.5607C99.1567 55.4481 99.2023 55.3467 99.2821 55.2679C99.3618 55.1891 99.4644 55.1553 99.5783 55.1553Z" fill="#007CC2"/>
</svg>
